<?xml version="1.0" encoding="utf-8"?>
<!-- Generator: Adobe Illustrator 17.1.0, SVG Export Plug-In . SVG Version: 6.00 Build 0)  -->
<!DOCTYPE svg PUBLIC "-//W3C//DTD SVG 1.1//EN" "http://www.w3.org/Graphics/SVG/1.1/DTD/svg11.dtd">
<svg version="1.1" xmlns="http://www.w3.org/2000/svg" xmlns:xlink="http://www.w3.org/1999/xlink" x="0px" y="0px"
	 viewBox="0 0 349.5 94.5" enable-background="new 0 0 349.5 94.5" xml:space="preserve">
<g id="Layer_4">
</g>
<g id="Layer_5">
	<g>
		<path fill="#FFFFFF" d="M68.2,16.8L40.7,78.1H28.1l10.5-41.7l0,0l-17,41.7H9.6l10.6-61.3H31l-8.7,43.1h0.1l16.5-43.1h11L39.4,59.9
			h0.1l17.6-43.1H68.2z"/>
		<path fill="#FFFFFF" d="M79.3,78.1h-12l1.7-9.4h-7.4l-4.1,9.4H46.2l28.7-61.3h13.9L79.3,78.1z M72,55.4l5.7-25.7h-0.1L67,55.4H72z
			"/>
		<path fill="#FFFFFF" d="M117.4,29h-7.8L94.5,78.1h-11L98.6,29h-7.1l4-12.2h26L117.4,29z"/>
		<path fill="#FFFFFF" d="M141.7,29h-7.5l-15.1,49.1h-11L123.1,29h-6.8l4-12.2h25.6L141.7,29z"/>
		<path fill="#FFFFFF" d="M204.5,60.4c-1.9,6.1-4.5,10.7-7.8,13.8c-2.7,2.6-5.5,3.9-8.4,3.9h-17.9L189,16.8h17.5
			c3.1,0,5.2,1.1,6.4,3.3c1.3,2.6,1.2,6.7-0.6,12.1c-1.2,3.9-2.9,7-4.9,9.4c-1.8,2.1-3.7,3.5-5.8,4.1l-0.1,0.2
			c2,0.1,3.3,1.2,3.9,3.3C206.4,51.9,206,55.6,204.5,60.4z M193.6,58.9c1.5-4.8,1.1-7.1-1.4-7.1h-1.9l-4.4,14h1.9
			C190.2,65.8,192.1,63.5,193.6,58.9z M200.4,35.4c1.3-4.1,1-6.2-1-6.2h-1.9L193.7,41h1.9c0.8,0,1.7-0.5,2.6-1.6
			C199.1,38.4,199.9,37,200.4,35.4z"/>
		<path fill="#FFFFFF" d="M232.5,78.1h-11.7l1.7-9.4h-7.4l-4.1,9.4h-11.4l27.4-61.3h15.2L232.5,78.1z M225.6,55.4l5.7-25.7h-0.1
			l-10.7,25.7H225.6z"/>
		<path fill="#FFFFFF" d="M261.2,78.1h-7.8l1.6-5h-0.1c-1.7,2.1-2.8,3.3-3.3,3.7c-2,1.7-4.2,2.5-6.8,2.5c-4.8,0-8.1-2.7-8-8.2
			c0.1-4.4,1.9-12.3,5.5-23.8c3.7-11.7,7.1-19.8,10.4-24.3c3.5-4.9,9-7.4,14.5-7.4c5.5,0,8.5,2.1,9.3,6.4c0.5,3.1-0.2,7.9-2.3,14.4
			h-10.4c1.2-3.9,1.8-6.5,1.8-7.7c0-1.2-0.7-1.8-1.9-1.8c-1.3,0-2.6,1.7-3.9,5.1c-0.6,1.5-2.1,6.1-4.5,13.6
			c-2.3,7.4-3.9,12.5-4.6,15.1c-0.9,3.1-1.2,5.2-1.1,6.1c0.1,0.7,0.6,1.1,1.6,1.1c1.2,0,2.2-0.7,3.1-2.2c0.9-1.5,2.1-4.7,3.7-9.7
			h-3.2l3.6-11.3h13.6L261.2,78.1z"/>
		<path fill="#FFFFFF" d="M292.5,78.1h-7.8l1.6-5h-0.1c-1.7,2.1-2.8,3.3-3.3,3.7c-2,1.7-4.2,2.5-6.8,2.5c-4.8,0-7.8-2.7-7.7-8.2
			c0.1-4.4,1.9-12.3,5.5-23.8c3.7-11.7,7.1-19.8,10.4-24.3c3.5-4.9,8.7-7.4,14.1-7.4c5.5,0,8.5,2.1,9.3,6.4
			c0.5,3.1-0.2,7.9-2.3,14.4h-10.4c1.2-3.9,1.8-6.5,1.8-7.7c0-1.2-0.7-1.8-1.9-1.8c-1.3,0-2.6,1.7-3.9,5.1
			c-0.6,1.5-2.1,6.1-4.5,13.6c-2.3,7.4-3.9,12.5-4.6,15.1c-0.9,3.1-1.2,5.2-1.1,6.1c0.1,0.7,0.6,1.1,1.6,1.1c1.2,0,2.2-0.7,3.1-2.2
			c0.9-1.5,2.1-4.7,3.7-9.7h-3.2l3.6-11.3H303L292.5,78.1z"/>
		<path fill="#FFFFFF" d="M157.8,36.8l10.5-0.1c0,0,2.4-5.5,2.9-10.7c0.4-4.6-1.5-8.3-5.8-9.6c-5.8-1.8-11.3-0.6-15.5,2.4
			c-3.4,2.4-6.4,7.3-8.1,11.7c-1.8,4.5-2.3,11.2-0.1,15.1c2.7,4.7,6.3,7.8,7.7,11.2c1.7,4.1,0.5,7.3-1,9.1c-2.2,2.5-5.3,2.7-6,0.7
			c-0.7-2,0.3-4.8,0.7-6.4c0.4-1.6,1.1-3.1,1.1-3.1h-11.2c0,0-2.3,7.1-2.6,10c-0.3,2.9,0.1,6.7,2.9,9.2c2.7,2.5,9,3.3,14.1,1.4
			c5.1-1.9,8.7-5.1,11.2-9.1c2.5-4,4.4-10.2,3.7-15.5c-0.7-5.4-3.8-8.8-6.7-12.6c-2.9-3.8-4.4-6.9-3.2-9.8c1.1-2.9,3.3-4,5.1-4
			s2.3,1.9,2,3.3C159.2,31.8,157.8,36.8,157.8,36.8z"/>
		<path fill="#FFFFFF" d="M326.4,36.8l10.5-0.1c0,0,2.4-5.5,2.9-10.7c0.4-4.6-1.5-8.3-5.8-9.6c-5.8-1.8-11.3-0.6-15.5,2.4
			c-3.4,2.4-6.4,7.3-8.1,11.7c-1.8,4.5-2.3,11.2-0.1,15.1c2.7,4.7,6.3,7.8,7.7,11.2c1.7,4.1,0.5,7.3-1,9.1c-2.2,2.5-5.3,2.7-6,0.7
			c-0.7-2,0.3-4.8,0.7-6.4c0.4-1.6,1.1-3.1,1.1-3.1h-11.2c0,0-2.3,7.1-2.6,10c-0.3,2.9,0.1,6.7,2.9,9.2c2.7,2.5,9,3.3,14.1,1.4
			c5.1-1.9,8.7-5.1,11.2-9.1c2.5-4,4.4-10.2,3.7-15.5s-3.8-8.8-6.7-12.6c-2.9-3.8-4.4-6.9-3.2-9.8s3.3-4,5.1-4s2.3,1.9,2,3.3
			C327.8,31.8,326.4,36.8,326.4,36.8z"/>
	</g>
</g>
</svg>
