<?xml version="1.0" encoding="utf-8"?>
<!-- Generator: Adobe Illustrator 17.1.0, SVG Export Plug-In . SVG Version: 6.00 Build 0)  -->
<!DOCTYPE svg PUBLIC "-//W3C//DTD SVG 1.1//EN" "http://www.w3.org/Graphics/SVG/1.1/DTD/svg11.dtd">
<svg version="1.1" xmlns="http://www.w3.org/2000/svg" xmlns:xlink="http://www.w3.org/1999/xlink" x="0px" y="0px"
	 viewBox="0 0 363 108" enable-background="new 0 0 363 108" xml:space="preserve">
<g id="Layer_4">
</g>
<g id="Layer_5">
	<g>
		<g>
			<path fill="#FFFFFF" d="M1416,79.9c-0.8,3-2,5.2-3.5,6.5c-1.5,1.3-3.6,2-6.1,2c-2.6,0-4.3-0.6-5.1-1.8c-0.8-1.3-0.8-3.5,0.1-6.7
				l4.2-15.4h5.2l-4.4,16.4c-0.4,1.5-0.5,2.5-0.3,3.1c0.2,0.5,0.6,0.7,1.4,0.7c0.8,0,1.4-0.3,1.8-0.8c0.4-0.5,0.9-1.5,1.2-2.9
				l4.4-16.4h5.2L1416,79.9z"/>
			<path fill="#FFFFFF" d="M1433.2,81.1c-1.3,4.8-4.5,7.3-9.7,7.3c-2.4,0-4-0.5-4.8-1.4c-1-1.2-1.1-3.2-0.3-6.2h5.1
				c-0.3,1.2-0.4,2.1-0.3,2.6c0.1,0.8,0.6,1.2,1.5,1.2c0.7,0,1.4-0.3,2-0.9c0.5-0.5,0.8-1.1,1-1.7c0.3-1.2,0.1-2.1-0.7-2.7
				c-0.9-0.4-1.7-0.9-2.6-1.3c-1.4-0.8-2.4-1.5-2.8-2.1c-0.8-1.1-0.9-2.5-0.4-4.4c1.3-5,4.3-7.4,9-7.4c2.7,0,4.5,0.7,5.2,2
				c0.6,1.1,0.6,2.7,0,5h-4.9c0.6-2.1,0.2-3.2-1.2-3.2c-1.3,0-2.2,0.8-2.6,2.3c-0.3,1-0.1,1.9,0.5,2.5c0.3,0.4,0.9,0.8,1.9,1.2
				c1.6,0.8,2.4,1.2,2.5,1.2c0.9,0.5,1.5,1.2,1.8,2C1433.7,78.1,1433.6,79.4,1433.2,81.1z"/>
			<path fill="#FFFFFF" d="M1449.7,87.9h-5.4l0.2-4.4h-4.9l-2.1,4.4h-5.3l11.9-23.5h6.6L1449.7,87.9z M1445.1,79.2l1-10.3h0
				l-4.7,10.3H1445.1z"/>
			<path fill="#FFFFFF" d="M1463.1,87.9h-5.2l6.3-23.5h5.2L1463.1,87.9z"/>
			<path fill="#FFFFFF" d="M1480.8,87.9h-5.8l-0.2-15.9l-4.3,15.9h-4.8l6.3-23.5h5.7l0.1,15.8l0.1,0l4.3-15.8h4.9L1480.8,87.9z"/>
			<path fill="#FFFFFF" d="M1499.6,78.7c-1.7,6.4-5,9.7-9.8,9.7c-3.1,0-4.9-0.9-5.5-2.7c-0.5-1.7-0.2-4.8,1.1-9.4
				c1.2-4.6,2.6-7.7,4-9.4c1.6-1.9,3.9-2.8,7-2.8c2.9,0,4.7,0.8,5.3,2.4c0.5,1.3,0.3,3.3-0.5,6.2h-5.1c0.4-1.6,0.6-2.7,0.6-3.2
				c0-1.1-0.5-1.6-1.4-1.6c-1,0-1.9,0.7-2.5,2.1c-0.5,1-1.2,3.2-2.1,6.4c-0.9,3.4-1.4,5.6-1.3,6.7c0,1.1,0.5,1.6,1.5,1.6
				c0.8,0,1.4-0.4,2-1.3c0.6-0.9,1.1-2.4,1.7-4.6H1499.6z"/>
			<path fill="#FFFFFF" d="M1503.9,87.9h-4.7l1.6-6h4.7L1503.9,87.9z"/>
		</g>
		<path fill="#FFFFFF" d="M1304.4-27.9l-37.6,83.8h-17.1l14.4-57l-0.1,0l-23.2,57h-16.5l14.5-83.8h14.6L1241.7,31h0.1l22.5-58.9h15
			L1265.1,31h0.2l24.1-58.9H1304.4z"/>
		<path fill="#FFFFFF" d="M1319.6,55.9h-16.4l2.4-12.8h-10.1l-5.5,12.8h-15.6l39.2-83.8h18.9L1319.6,55.9z M1309.7,24.9l7.8-35.1
			h-0.1l-14.6,35.1H1309.7z"/>
		<path fill="#FFFFFF" d="M1371.6-11.2H1361l-20.6,67.1h-15.1l20.6-67.1h-9.7l5.4-16.7h35.5L1371.6-11.2z"/>
		<path fill="#FFFFFF" d="M1404.8-11.2h-10.3L1374,55.9h-15.1l20.6-67.1h-9.3l5.5-16.7h35L1404.8-11.2z"/>
		<path fill="#FFFFFF" d="M1490.6,31.7c-2.6,8.4-6.2,14.7-10.7,18.9c-3.7,3.5-7.5,5.3-11.5,5.3H1444l25.6-83.8h24
			c4.2,0,7.1,1.5,8.7,4.6c1.8,3.6,1.6,9.1-0.8,16.5c-1.7,5.3-3.9,9.6-6.7,12.9c-2.4,2.9-5.1,4.8-7.9,5.6l-0.1,0.2
			c2.7,0.2,4.5,1.7,5.4,4.6C1493.2,20,1492.7,25.1,1490.6,31.7z M1475.7,29.6c2.1-6.5,1.4-9.7-1.8-9.7h-2.6l-6,19.1h2.7
			C1471.1,39,1473.8,35.9,1475.7,29.6z M1485-2.5c1.8-5.7,1.3-8.5-1.3-8.5h-2.7L1476,5.1h2.6c1.1,0,2.3-0.7,3.5-2.1
			C1483.3,1.6,1484.3-0.2,1485-2.5z"/>
		<path fill="#FFFFFF" d="M1529,55.9h-16l2.4-12.8h-10.1l-5.5,12.8h-15.6l37.5-83.8h20.7L1529,55.9z M1519.5,24.9l7.8-35.1h-0.1
			l-14.6,35.1H1519.5z"/>
		<path fill="#FFFFFF" d="M1568.2,55.9h-10.6l2.1-6.8h-0.2c-2.4,2.8-3.9,4.5-4.5,5c-2.7,2.3-5.8,3.4-9.3,3.4
			c-6.5,0-11-3.8-10.9-11.3c0.1-6,2.6-16.8,7.5-32.5c5-15.9,9.8-27,14.2-33.2c4.8-6.7,12.3-10.1,19.8-10.1c7.4,0,11.7,2.9,12.7,8.7
			c0.7,4.2-0.3,10.8-3.1,19.7h-14.3c1.7-5.3,2.5-8.8,2.5-10.5c0-1.6-0.9-2.5-2.6-2.5c-1.8,0-3.6,2.3-5.4,7
			c-0.9,2.1-2.9,8.3-6.2,18.5c-3.2,10.2-5.3,17-6.3,20.6c-1.2,4.3-1.7,7.1-1.5,8.3c0.1,1,0.9,1.5,2.2,1.5c1.6,0,3-1,4.2-3
			c1.2-2,2.9-6.4,5-13.2h-4.3l4.9-15.5h18.5L1568.2,55.9z"/>
		<path fill="#FFFFFF" d="M1610.9,55.9h-10.6l2.1-6.8h-0.2c-2.4,2.8-3.9,4.5-4.5,5c-2.7,2.3-5.8,3.4-9.3,3.4
			c-6.5,0-10.6-3.8-10.5-11.3c0.1-6,2.6-16.8,7.5-32.5c5-15.9,9.8-27,14.2-33.2c4.8-6.7,11.9-10.1,19.3-10.1
			c7.4,0,11.7,2.9,12.7,8.7c0.7,4.2-0.3,10.8-3.1,19.7h-14.3c1.7-5.3,2.5-8.8,2.5-10.5c0-1.6-0.9-2.5-2.6-2.5c-1.8,0-3.6,2.3-5.4,7
			c-0.9,2.1-2.9,8.3-6.2,18.5c-3.2,10.2-5.3,17-6.3,20.6c-1.2,4.3-1.7,7.1-1.5,8.3c0.1,1,0.9,1.5,2.2,1.5c1.6,0,3-1,4.2-3
			c1.2-2,2.9-6.4,5-13.2h-4.3l4.9-15.5h18.5L1610.9,55.9z"/>
		<path fill="#FFFFFF" d="M1426.8-0.5l14.4-0.1c0,0,3.3-7.5,4-14.6c0.6-6.2-2.1-11.3-7.9-13.1c-8-2.5-15.4-0.8-21.2,3.3
			c-4.7,3.3-8.7,10-11,15.9c-2.4,6.2-3.2,15.2-0.1,20.6c3.7,6.4,8.6,10.7,10.5,15.3c2.4,5.7,0.7,10-1.4,12.5c-3,3.5-7.2,3.8-8.1,1
			s0.4-6.6,1-8.8s1.5-4.2,1.5-4.2h-15.3c0,0-3.1,9.7-3.5,13.7c-0.4,4,0.2,9.1,3.9,12.6c3.8,3.4,12.3,4.5,19.2,1.9
			c7-2.6,11.9-6.9,15.3-12.5c3.4-5.5,6-13.9,5.1-21.2s-5.2-12-9.2-17.3c-3.9-5.1-5.9-9.4-4.4-13.4s4.5-5.4,7-5.4
			c2.5,0,3.2,2.6,2.8,4.5C1428.8-7.3,1426.8-0.5,1426.8-0.5z"/>
		<path fill="#FFFFFF" d="M1657.2-0.5l14.4-0.1c0,0,3.3-7.5,4-14.6c0.6-6.2-2.1-11.3-7.9-13.1c-8-2.5-15.4-0.8-21.2,3.3
			c-4.7,3.3-8.7,10-11,15.9c-2.4,6.2-3.2,15.2-0.1,20.6c3.7,6.4,8.6,10.7,10.5,15.3c2.4,5.7,0.7,10-1.4,12.5c-3,3.5-7.2,3.8-8.1,1
			s0.4-6.6,1-8.8s1.5-4.2,1.5-4.2h-15.3c0,0-3.1,9.7-3.5,13.7c-0.4,4,0.2,9.1,3.9,12.6c3.8,3.4,12.3,4.5,19.2,1.9
			c7-2.6,11.9-6.9,15.3-12.5c3.4-5.5,6-13.9,5.1-21.2s-5.2-12-9.2-17.3c-3.9-5.1-5.9-9.4-4.4-13.4s4.5-5.4,7-5.4
			c2.5,0,3.2,2.6,2.8,4.5C1659.1-7.3,1657.2-0.5,1657.2-0.5z"/>
	</g>
	<g>
		<path fill-rule="evenodd" clip-rule="evenodd" fill="#C8161D" d="M1433.9-557.4c-5.7-0.7-15-0.7-20.7,0l-132.1,16.2
			c-5.7,0.7-10.3,6-10.3,11.7v44.7c0,5.7,0,15.1,0,20.8v44.7c0,5.7,4.7,11,10.3,11.7l132.1,16.2c5.7,0.7,15,0.7,20.7,0l132.1-16.2
			c5.7-0.7,10.3-6,10.3-11.7v-44.7c0-5.7,0-15.1,0-20.8v-44.7c0-5.7-4.7-11-10.3-11.7L1433.9-557.4z"/>
		<path fill="#FFFFFF" d="M1423.6-548.4c3.5,0,6.8,0.2,9.2,0.5l132.1,16.2c0.9,0.1,2,1.3,2,2.3v110.2c0,0.9-1.1,2.2-2,2.3
			l-132.1,16.2c-2.3,0.3-5.7,0.5-9.2,0.5c-3.5,0-6.8-0.2-9.2-0.5L1282.2-417c-0.9-0.1-2-1.3-2-2.3v-110.2c0-0.9,1.1-2.2,2-2.3
			l132.1-16.2C1416.7-548.2,1420.1-548.4,1423.6-548.4 M1423.6-549.2c-3.5,0-6.9,0.2-9.3,0.5l-132.1,16.2c-1.3,0.2-2.7,1.8-2.7,3.1
			v110.2c0,1.4,1.4,2.9,2.7,3.1l132.1,16.2c2.4,0.3,5.8,0.5,9.3,0.5c3.5,0,6.9-0.2,9.3-0.5l132.1-16.2c1.4-0.2,2.7-1.7,2.7-3.1
			v-110.2c0-1.4-1.4-2.9-2.7-3.1l-132.1-16.2C1430.5-549.1,1427.1-549.2,1423.6-549.2L1423.6-549.2z"/>
	</g>
	<g>
		<polygon fill="#FFFFFF" points="1464,-449.4 1462.5,-448 1464,-446.5 1503.5,-448 		"/>
		<polygon fill="#FFFFFF" points="1383.1,-446.5 1384.6,-448 1383.1,-449.4 1343.6,-448 		"/>
		<g>
			<path fill="#FFFFFF" d="M1402.1-445.8c-0.5,1.8-1.2,3.1-2.1,3.8c-0.9,0.8-2.1,1.2-3.6,1.2c-1.5,0-2.5-0.3-3-1
				c-0.5-0.8-0.5-2.1,0.1-4l2.5-9.1h3.1l-2.6,9.7c-0.2,0.9-0.3,1.5-0.2,1.8c0.1,0.3,0.4,0.4,0.8,0.4c0.5,0,0.8-0.2,1.1-0.5
				c0.3-0.3,0.5-0.9,0.7-1.7l2.6-9.7h3.1L1402.1-445.8z"/>
			<path fill="#FFFFFF" d="M1412.3-445.1c-0.8,2.9-2.7,4.3-5.7,4.3c-1.4,0-2.3-0.3-2.8-0.9c-0.6-0.7-0.7-1.9-0.2-3.6h3
				c-0.2,0.7-0.3,1.2-0.2,1.6c0.1,0.5,0.4,0.7,0.9,0.7c0.4,0,0.8-0.2,1.2-0.5c0.3-0.3,0.5-0.6,0.6-1c0.2-0.7,0.1-1.2-0.4-1.6
				c-0.5-0.3-1-0.5-1.5-0.8c-0.9-0.5-1.4-0.9-1.6-1.3c-0.5-0.6-0.5-1.5-0.2-2.6c0.8-2.9,2.6-4.4,5.3-4.4c1.6,0,2.6,0.4,3.1,1.2
				c0.4,0.6,0.4,1.6,0,3h-2.9c0.4-1.3,0.1-1.9-0.7-1.9c-0.8,0-1.3,0.5-1.5,1.4c-0.2,0.6-0.1,1.1,0.3,1.5c0.2,0.2,0.5,0.4,1.1,0.7
				c0.9,0.5,1.4,0.7,1.5,0.7c0.5,0.3,0.9,0.7,1.1,1.2C1412.6-446.8,1412.6-446.1,1412.3-445.1z"/>
			<path fill="#FFFFFF" d="M1422.1-441h-3.2l0.1-2.6h-2.9l-1.2,2.6h-3.2l7-13.9h3.9L1422.1-441z M1419.4-446.2l0.6-6.1h0l-2.7,6.1
				H1419.4z"/>
			<path fill="#FFFFFF" d="M1430-441h-3.1l3.7-13.9h3.1L1430-441z"/>
			<path fill="#FFFFFF" d="M1440.4-441h-3.4l-0.1-9.4l-2.5,9.4h-2.8l3.7-13.9h3.3l0.1,9.3l0.1,0l2.5-9.3h2.9L1440.4-441z"/>
			<path fill="#FFFFFF" d="M1451.5-446.5c-1,3.8-3,5.7-5.8,5.7c-1.8,0-2.9-0.5-3.3-1.6c-0.3-1-0.1-2.8,0.6-5.6
				c0.7-2.7,1.5-4.6,2.3-5.6c0.9-1.1,2.3-1.7,4.1-1.7c1.7,0,2.8,0.5,3.1,1.4c0.3,0.7,0.2,2-0.3,3.6h-3c0.3-0.9,0.4-1.6,0.4-1.9
				c0-0.6-0.3-0.9-0.8-0.9c-0.6,0-1.1,0.4-1.5,1.2c-0.3,0.6-0.7,1.9-1.2,3.8c-0.5,2-0.8,3.3-0.8,4c0,0.6,0.3,1,0.9,1
				c0.5,0,0.8-0.3,1.2-0.8c0.3-0.5,0.7-1.4,1-2.7H1451.5z"/>
			<path fill="#FFFFFF" d="M1454.1-441h-2.8l0.9-3.5h2.8L1454.1-441z"/>
		</g>
	</g>
	<g>
		<path fill="#FFFFFF" d="M1337.6-514.8l-22.2,49.5h-10.1l8.5-33.7l0,0l-13.7,33.7h-9.7l8.6-49.5h8.6l-7,34.8h0l13.3-34.8h8.9
			l-8.3,34.8h0.1l14.2-34.8H1337.6z"/>
		<path fill="#FFFFFF" d="M1346.5-465.3h-9.7l1.4-7.5h-6l-3.3,7.5h-9.2l23.2-49.5h11.2L1346.5-465.3z M1340.7-483.7l4.6-20.7h0
			l-8.6,20.7H1340.7z"/>
		<path fill="#FFFFFF" d="M1377.3-505h-6.3l-12.2,39.6h-8.9l12.2-39.6h-5.8l3.2-9.8h20.9L1377.3-505z"/>
		<path fill="#FFFFFF" d="M1396.9-505h-6.1l-12.1,39.6h-8.9l12.1-39.6h-5.5l3.2-9.8h20.7L1396.9-505z"/>
		<path fill="#FFFFFF" d="M1447.5-479.6c-1.6,4.9-3.7,8.7-6.3,11.2c-2.2,2.1-4.4,3.1-6.8,3.1H1420l15.1-49.5h14.1
			c2.5,0,4.2,0.9,5.2,2.7c1.1,2.1,0.9,5.4-0.5,9.8c-1,3.1-2.3,5.7-4,7.6c-1.4,1.7-3,2.8-4.7,3.3l0,0.1c1.6,0.1,2.7,1,3.2,2.7
			C1449.1-486.5,1448.8-483.5,1447.5-479.6z M1438.7-480.8c1.2-3.8,0.8-5.8-1.1-5.8h-1.5l-3.6,11.3h1.6
			C1436-475.3,1437.6-477.1,1438.7-480.8z M1444.2-499.8c1.1-3.3,0.8-5-0.8-5h-1.6l-3,9.5h1.5c0.7,0,1.4-0.4,2.1-1.3
			C1443.2-497.4,1443.8-498.5,1444.2-499.8z"/>
		<path fill="#FFFFFF" d="M1470.2-465.3h-9.4l1.4-7.5h-6l-3.3,7.5h-9.2l22.1-49.5h12.2L1470.2-465.3z M1464.6-483.7l4.6-20.7h0
			l-8.6,20.7H1464.6z"/>
		<path fill="#FFFFFF" d="M1493.3-465.3h-6.3l1.3-4h-0.1c-1.4,1.7-2.3,2.6-2.7,3c-1.6,1.3-3.4,2-5.5,2c-3.8,0-6.5-2.2-6.5-6.6
			c0-3.6,1.5-9.9,4.4-19.2c3-9.4,5.8-15.9,8.4-19.6c2.9-4,7.3-6,11.7-6c4.4,0,6.9,1.7,7.5,5.1c0.4,2.5-0.2,6.4-1.9,11.6h-8.4
			c1-3.1,1.5-5.2,1.5-6.2c0-1-0.5-1.5-1.5-1.5c-1,0-2.1,1.4-3.2,4.2c-0.5,1.2-1.7,4.9-3.6,10.9c-1.9,6-3.1,10.1-3.7,12.2
			c-0.7,2.5-1,4.2-0.9,4.9c0.1,0.6,0.5,0.9,1.3,0.9c1,0,1.8-0.6,2.5-1.8c0.7-1.2,1.7-3.8,3-7.8h-2.6l2.9-9.1h10.9L1493.3-465.3z"/>
		<path fill="#FFFFFF" d="M1518.5-465.3h-6.3l1.3-4h-0.1c-1.4,1.7-2.3,2.6-2.7,3c-1.6,1.3-3.4,2-5.5,2c-3.8,0-6.3-2.2-6.2-6.6
			c0-3.6,1.5-9.9,4.4-19.2c3-9.4,5.8-15.9,8.4-19.6c2.9-4,7-6,11.4-6c4.4,0,6.9,1.7,7.5,5.1c0.4,2.5-0.2,6.4-1.9,11.6h-8.4
			c1-3.1,1.5-5.2,1.5-6.2c0-1-0.5-1.5-1.5-1.5c-1,0-2.1,1.4-3.2,4.2c-0.5,1.2-1.7,4.9-3.6,10.9c-1.9,6-3.1,10.1-3.7,12.2
			c-0.7,2.5-1,4.2-0.9,4.9c0.1,0.6,0.5,0.9,1.3,0.9c1,0,1.8-0.6,2.5-1.8c0.7-1.2,1.7-3.8,3-7.8h-2.6l2.9-9.1h10.9L1518.5-465.3z"/>
		<path fill="#FFFFFF" d="M1409.9-498.6l8.5-0.1c0,0,1.9-4.4,2.4-8.6c0.4-3.7-1.2-6.7-4.6-7.7c-4.7-1.4-9.1-0.5-12.5,1.9
			c-2.8,1.9-5.2,5.9-6.5,9.4c-1.4,3.7-1.9,9-0.1,12.2c2.2,3.8,5.1,6.3,6.2,9c1.4,3.3,0.4,5.9-0.8,7.4c-1.7,2.1-4.3,2.2-4.8,0.6
			s0.2-3.9,0.6-5.2s0.9-2.5,0.9-2.5h-9c0,0-1.9,5.7-2.1,8.1c-0.2,2.3,0.1,5.4,2.3,7.4c2.2,2,7.3,2.7,11.4,1.1c4.1-1.5,7.1-4.1,9-7.4
			c2-3.3,3.6-8.2,3-12.5c-0.5-4.3-3.1-7.1-5.4-10.2c-2.3-3-3.5-5.5-2.6-7.9c0.9-2.4,2.7-3.2,4.1-3.2s1.9,1.6,1.6,2.7
			C1411-502.7,1409.9-498.6,1409.9-498.6z"/>
		<path fill="#FFFFFF" d="M1545.9-498.6l8.5-0.1c0,0,1.9-4.4,2.4-8.6c0.4-3.7-1.2-6.7-4.6-7.7c-4.7-1.4-9.1-0.5-12.5,1.9
			c-2.8,1.9-5.2,5.9-6.5,9.4c-1.4,3.7-1.9,9-0.1,12.2c2.2,3.8,5.1,6.3,6.2,9c1.4,3.3,0.4,5.9-0.8,7.4c-1.7,2.1-4.3,2.2-4.8,0.6
			c-0.5-1.6,0.2-3.9,0.6-5.2s0.9-2.5,0.9-2.5h-9c0,0-1.9,5.7-2.1,8.1c-0.2,2.3,0.1,5.4,2.3,7.4c2.2,2,7.3,2.7,11.4,1.1
			c4.1-1.5,7.1-4.1,9-7.4c2-3.3,3.6-8.2,3-12.5c-0.5-4.3-3.1-7.1-5.4-10.2c-2.3-3-3.5-5.5-2.6-7.9c0.9-2.4,2.7-3.2,4.1-3.2
			s1.9,1.6,1.6,2.7C1547-502.7,1545.9-498.6,1545.9-498.6z"/>
	</g>
	<g>
		<path fill-rule="evenodd" clip-rule="evenodd" fill="#C8161D" d="M1482.4,417.1c-6.8-0.8-18.1-0.8-24.9,0l-159.1,19.5
			c-6.8,0.8-12.5,7.2-12.5,14.1v53.8c0,6.9,0,18.2,0,25.1v53.8c0,6.9,5.6,13.2,12.5,14.1l159.1,19.5c6.9,0.8,18.1,0.8,24.9,0
			l159.1-19.5c6.9-0.8,12.5-7.2,12.5-14.1v-53.8c0-6.9,0-18.2,0-25.1v-53.8c0-6.9-5.6-13.2-12.5-14.1L1482.4,417.1z"/>
		<path fill="#FFFFFF" d="M1470,427.9c4.2,0,8.2,0.2,11.1,0.5l159.1,19.5c1.1,0.1,2.4,1.6,2.4,2.7v132.7c0,1.1-1.3,2.6-2.4,2.7
			L1481,605.6c-2.8,0.3-6.9,0.5-11.1,0.5c-4.2,0-8.2-0.2-11.1-0.5l-159.1-19.5c-1.1-0.1-2.4-1.6-2.4-2.7V450.6
			c0-1.1,1.3-2.6,2.4-2.7l159.1-19.5C1461.7,428.1,1465.8,427.9,1470,427.9 M1470,426.9c-4.3,0-8.3,0.2-11.2,0.6l-159.1,19.5
			c-1.6,0.2-3.3,2.1-3.3,3.7v132.7c0,1.7,1.7,3.5,3.3,3.7l159.1,19.5c2.9,0.4,6.9,0.6,11.2,0.6c4.2,0,8.3-0.2,11.2-0.6l159.1-19.5
			c1.6-0.2,3.3-2.1,3.3-3.7V450.6c0-1.7-1.7-3.5-3.3-3.7l-159.1-19.5C1478.3,427.1,1474.2,426.9,1470,426.9L1470,426.9z"/>
	</g>
	<g>
		
			<text transform="matrix(1 0 0 1 1447.067 470.8123)" fill="#FFFFFF" font-family="'DINCondensed-Bold'" font-size="11.2888" letter-spacing="2">EST 1971</text>
	</g>
	<polygon fill="#FFFFFF" points="1518.6,561.1 1516.9,562.8 1518.6,564.5 1566.2,562.8 	"/>
	<polygon fill="#FFFFFF" points="1421.3,564.5 1423,562.8 1421.3,561.1 1373.7,562.8 	"/>
	<g>
		<path fill="#FFFFFF" d="M1366.4,483.3l-26.7,59.6h-12.2l10.2-40.5l0,0l-16.5,40.5h-11.7l10.3-59.6h10.4l-8.5,41.9h0.1l16-41.9
			h10.7l-10.1,41.9h0.1l17.1-41.9H1366.4z"/>
		<path fill="#FFFFFF" d="M1377.2,542.9h-11.7l1.7-9.1h-7.2l-3.9,9.1H1345l27.9-59.6h13.5L1377.2,542.9z M1370.2,520.8l5.5-25h-0.1
			l-10.4,25H1370.2z"/>
		<path fill="#FFFFFF" d="M1414.2,495.2h-7.6l-14.6,47.7h-10.7l14.6-47.7h-6.9l3.9-11.9h25.2L1414.2,495.2z"/>
		<path fill="#FFFFFF" d="M1437.8,495.2h-7.3l-14.6,47.7h-10.7l14.6-47.7h-6.6l3.9-11.9h24.9L1437.8,495.2z"/>
		<path fill="#FFFFFF" d="M1498.8,525.7c-1.9,6-4.4,10.4-7.6,13.4c-2.6,2.5-5.3,3.8-8.2,3.8h-17.4l18.2-59.6h17c3,0,5.1,1.1,6.2,3.3
			c1.3,2.6,1.1,6.5-0.5,11.8c-1.2,3.8-2.8,6.8-4.8,9.2c-1.7,2.1-3.6,3.4-5.6,4l-0.1,0.2c1.9,0.1,3.2,1.2,3.8,3.3
			C1500.7,517.4,1500.3,521,1498.8,525.7z M1488.2,524.2c1.5-4.6,1-6.9-1.3-6.9h-1.8l-4.3,13.6h1.9
			C1485,530.9,1486.8,528.7,1488.2,524.2z M1494.9,501.4c1.3-4,1-6-0.9-6h-1.9l-3.6,11.5h1.8c0.8,0,1.6-0.5,2.5-1.5
			C1493.7,504.3,1494.4,503,1494.9,501.4z"/>
		<path fill="#FFFFFF" d="M1526.1,542.9h-11.4l1.7-9.1h-7.2l-3.9,9.1h-11.1l26.6-59.6h14.7L1526.1,542.9z M1519.3,520.8l5.5-25h-0.1
			l-10.4,25H1519.3z"/>
		<path fill="#FFFFFF" d="M1554,542.9h-7.6l1.5-4.8h-0.1c-1.7,2-2.7,3.2-3.2,3.6c-1.9,1.6-4.1,2.4-6.6,2.4c-4.6,0-7.9-2.7-7.8-8
			c0.1-4.3,1.8-12,5.4-23.1c3.6-11.3,6.9-19.2,10.1-23.6c3.4-4.8,8.8-7.2,14.1-7.2c5.3,0,8.3,2.1,9,6.2c0.5,3-0.2,7.7-2.2,14h-10.1
			c1.2-3.8,1.8-6.3,1.8-7.4c0-1.2-0.6-1.8-1.9-1.8c-1.3,0-2.5,1.7-3.8,5c-0.6,1.5-2.1,5.9-4.4,13.2c-2.3,7.2-3.8,12.1-4.5,14.7
			c-0.9,3.1-1.2,5-1.1,5.9c0.1,0.7,0.6,1.1,1.6,1.1c1.1,0,2.1-0.7,3-2.2c0.9-1.4,2-4.6,3.6-9.4h-3.1l3.5-11h13.2L1554,542.9z"/>
		<path fill="#FFFFFF" d="M1584.3,542.9h-7.6l1.5-4.8h-0.1c-1.7,2-2.7,3.2-3.2,3.6c-1.9,1.6-4.1,2.4-6.6,2.4c-4.6,0-7.5-2.7-7.5-8
			c0.1-4.3,1.8-12,5.4-23.1c3.6-11.3,6.9-19.2,10.1-23.6c3.4-4.8,8.4-7.2,13.7-7.2c5.3,0,8.3,2.1,9,6.2c0.5,3-0.2,7.7-2.2,14h-10.1
			c1.2-3.8,1.8-6.3,1.8-7.4c0-1.2-0.6-1.8-1.9-1.8c-1.3,0-2.5,1.7-3.8,5c-0.6,1.5-2.1,5.9-4.4,13.2c-2.3,7.2-3.8,12.1-4.5,14.7
			c-0.9,3.1-1.2,5-1.1,5.9c0.1,0.7,0.6,1.1,1.6,1.1c1.1,0,2.1-0.7,3-2.2c0.9-1.4,2-4.6,3.6-9.4h-3.1l3.5-11h13.2L1584.3,542.9z"/>
		<path fill="#FFFFFF" d="M1453.5,502.8l10.2-0.1c0,0,2.3-5.3,2.8-10.4c0.4-4.4-1.5-8-5.6-9.3c-5.7-1.7-11-0.6-15.1,2.3
			c-3.3,2.3-6.2,7.1-7.8,11.3c-1.7,4.4-2.3,10.8-0.1,14.7c2.6,4.6,6.1,7.6,7.5,10.9c1.7,4,0.5,7.1-1,8.9c-2.1,2.5-5.1,2.7-5.8,0.7
			c-0.7-2,0.3-4.7,0.7-6.2s1.1-3,1.1-3h-10.9c0,0-2.2,6.9-2.5,9.7c-0.3,2.8,0.1,6.5,2.8,8.9c2.7,2.5,8.8,3.2,13.7,1.4
			c5-1.9,8.5-4.9,10.9-8.9c2.4-3.9,4.3-9.9,3.6-15.1c-0.7-5.2-3.7-8.6-6.5-12.3c-2.8-3.7-4.2-6.7-3.1-9.5c1.1-2.8,3.2-3.9,5-3.9
			s2.3,1.9,2,3.2C1454.8,497.9,1453.5,502.8,1453.5,502.8z"/>
		<path fill="#FFFFFF" d="M1617.3,502.8l10.2-0.1c0,0,2.3-5.3,2.8-10.4c0.4-4.4-1.5-8-5.6-9.3c-5.7-1.7-11-0.6-15.1,2.3
			c-3.3,2.3-6.2,7.1-7.8,11.3c-1.7,4.4-2.3,10.8-0.1,14.7c2.6,4.6,6.1,7.6,7.5,10.9c1.7,4,0.5,7.1-1,8.9c-2.1,2.5-5.1,2.7-5.8,0.7
			s0.3-4.7,0.7-6.2s1.1-3,1.1-3h-10.9c0,0-2.2,6.9-2.5,9.7c-0.3,2.8,0.1,6.5,2.8,8.9c2.7,2.5,8.8,3.2,13.7,1.4
			c5-1.9,8.5-4.9,10.9-8.9c2.4-3.9,4.3-9.9,3.6-15.1c-0.7-5.2-3.7-8.6-6.5-12.3c-2.8-3.7-4.2-6.7-3.1-9.5c1.1-2.8,3.2-3.9,5-3.9
			s2.3,1.9,2,3.2C1618.6,497.9,1617.3,502.8,1617.3,502.8z"/>
	</g>
	<g>
		
			<text transform="matrix(1 0 0 1 1430.8573 567.2729)" fill="#FFFFFF" font-family="'DINCondensed-Bold'" font-size="16" letter-spacing="1">MADE IN USA</text>
	</g>
	<g>
		<path fill-rule="evenodd" clip-rule="evenodd" fill="#C8161D" d="M1492.8,176.7c-6.8-0.8-18.1-0.8-24.9,0l-159.1,19.5
			c-6.8,0.8-12.5,7.2-12.5,14.1v53.8c0,6.9,0,18.2,0,25.1V343c0,6.9,5.6,13.2,12.5,14.1l159.1,19.5c6.9,0.8,18.1,0.8,24.9,0
			l159.1-19.5c6.9-0.8,12.5-7.2,12.5-14.1v-53.8c0-6.9,0-18.2,0-25.1v-53.8c0-6.9-5.6-13.2-12.5-14.1L1492.8,176.7z"/>
		<path fill="#FFFFFF" d="M1480.4,187.5c4.2,0,8.2,0.2,11.1,0.5l159.1,19.5c1.1,0.1,2.4,1.6,2.4,2.7V343c0,1.1-1.3,2.6-2.4,2.7
			l-159.1,19.5c-2.8,0.3-6.9,0.5-11.1,0.5c-4.2,0-8.2-0.2-11.1-0.5l-159.1-19.5c-1.1-0.1-2.4-1.6-2.4-2.7V210.3
			c0-1.1,1.3-2.6,2.4-2.7l159.1-19.5C1472.1,187.7,1476.2,187.5,1480.4,187.5 M1480.4,186.5c-4.3,0-8.3,0.2-11.2,0.6l-159.1,19.5
			c-1.6,0.2-3.3,2.1-3.3,3.7V343c0,1.7,1.7,3.5,3.3,3.7l159.1,19.5c2.9,0.4,6.9,0.6,11.2,0.6c4.2,0,8.3-0.2,11.2-0.6l159.1-19.5
			c1.6-0.2,3.3-2.1,3.3-3.7V210.3c0-1.7-1.7-3.5-3.3-3.7l-159.1-19.5C1488.7,186.7,1484.6,186.5,1480.4,186.5L1480.4,186.5z"/>
	</g>
	<g>
		<g>
			<path fill="#FFFFFF" d="M1455.1,197.2c1.2-0.2,2.4-0.3,3.6-0.4c0,0.4,0.1,0.7,0.1,1.1c-0.8,0.1-1.6,0.2-2.4,0.3
				c0.1,0.8,0.2,1.6,0.3,2.3c0.7-0.1,1.4-0.2,2-0.2c0,0.4,0.1,0.7,0.1,1.1c-0.7,0.1-1.3,0.2-2,0.2c0.1,0.8,0.2,1.6,0.3,2.3
				c0.8-0.1,1.5-0.2,2.3-0.3c0,0.4,0.1,0.8,0.1,1.1c-1.1,0.1-2.3,0.3-3.4,0.4C1455.8,202.5,1455.5,199.8,1455.1,197.2z"/>
			<path fill="#FFFFFF" d="M1465.9,198.4c-0.4,0-0.8,0.1-1.2,0.1c0-0.1,0-0.2,0-0.3c0-0.3-0.1-0.5-0.2-0.7c-0.1-0.2-0.4-0.3-0.7-0.2
				c-0.2,0-0.3,0.1-0.4,0.1c-0.1,0.1-0.2,0.2-0.2,0.3c0,0.1-0.1,0.2-0.1,0.3c0,0.1,0,0.3,0,0.4c0,0.2,0,0.3,0.1,0.4
				c0,0.1,0.1,0.2,0.1,0.3c0.1,0.1,0.1,0.1,0.2,0.2c0.1,0.1,0.2,0.1,0.4,0.1c0.3,0.1,0.6,0.2,0.9,0.3c0.3,0.1,0.5,0.2,0.7,0.3
				c0.2,0.1,0.3,0.3,0.4,0.4c0.1,0.2,0.2,0.4,0.2,0.6c0,0.2,0.1,0.5,0.1,0.8c0,0.3,0,0.7,0,0.9c0,0.3-0.1,0.5-0.3,0.8
				c-0.1,0.2-0.3,0.4-0.6,0.5c-0.2,0.1-0.6,0.2-0.9,0.3c-0.3,0-0.5,0-0.8-0.1c-0.2-0.1-0.5-0.2-0.7-0.3c-0.2-0.2-0.3-0.3-0.5-0.6
				c-0.1-0.2-0.2-0.5-0.2-0.7c0-0.1,0-0.3,0-0.4c0.4,0,0.8-0.1,1.2-0.1c0,0.1,0,0.2,0,0.4c0,0.2,0.1,0.4,0.2,0.6
				c0.1,0.2,0.4,0.2,0.7,0.2c0.2,0,0.3-0.1,0.5-0.1c0.1-0.1,0.2-0.2,0.2-0.3c0-0.1,0.1-0.2,0.1-0.4c0-0.2,0-0.3,0-0.5
				c0-0.2,0-0.4-0.1-0.5c0-0.1-0.1-0.2-0.1-0.3c-0.1-0.1-0.1-0.1-0.2-0.2c-0.1,0-0.2-0.1-0.4-0.1c-0.3-0.1-0.6-0.2-0.9-0.3
				c-0.5-0.2-0.9-0.4-1.1-0.7c-0.2-0.3-0.3-0.7-0.4-1.2c0-0.3,0-0.6,0-0.9c0.1-0.3,0.2-0.5,0.3-0.7c0.2-0.2,0.4-0.4,0.6-0.5
				c0.2-0.1,0.5-0.2,0.9-0.3c0.3,0,0.6,0,0.8,0.1c0.3,0.1,0.5,0.2,0.7,0.4c0.2,0.2,0.3,0.3,0.4,0.6c0.1,0.2,0.2,0.4,0.2,0.6
				C1465.9,198.1,1465.9,198.3,1465.9,198.4z"/>
			<path fill="#FFFFFF" d="M1469.8,197c-0.5,0-0.9,0-1.4,0.1c0-0.4,0-0.7-0.1-1.1c1.3-0.1,2.7-0.1,4-0.2c0,0.4,0,0.7,0,1.1
				c-0.5,0-0.9,0-1.4,0.1c0.1,2.3,0.2,4.6,0.3,6.9c-0.4,0-0.8,0-1.2,0.1C1470.1,201.6,1469.9,199.3,1469.8,197z"/>
			<path fill="#FFFFFF" d="M1481.1,196.9c-0.4,0.3-0.8,0.6-1.2,0.8c0-0.4,0-0.8,0-1.2c0.4-0.3,0.8-0.6,1.2-0.8c0.4,0,0.8,0,1.2,0
				c0,2.7-0.1,5.4-0.1,8c-0.4,0-0.8,0-1.2,0C1481,201.4,1481.1,199.2,1481.1,196.9z"/>
			<path fill="#FFFFFF" d="M1488,200.5C1488,200.5,1488,200.5,1488,200.5c-0.1,0-0.1,0-0.2,0c-0.1,0-0.2,0-0.3,0
				c-0.2,0-0.4-0.1-0.6-0.2c-0.2-0.1-0.3-0.2-0.4-0.4c-0.1-0.1-0.1-0.2-0.1-0.2c0-0.1,0-0.2-0.1-0.3c0-0.1,0-0.3,0-0.5
				c0-0.2,0-0.5,0-0.8c0-0.3,0-0.5,0-0.6c0-0.2,0-0.3,0.1-0.4c0-0.1,0.1-0.2,0.1-0.3c0-0.1,0.1-0.2,0.1-0.3c0.2-0.2,0.4-0.4,0.7-0.6
				c0.3-0.1,0.6-0.2,0.9-0.2c0.3,0,0.6,0.1,0.9,0.3c0.3,0.2,0.5,0.4,0.6,0.6c0,0.1,0.1,0.2,0.1,0.3c0,0.1,0.1,0.2,0.1,0.3
				c0,0.1,0,0.3,0,0.4c0,0.2,0,0.4,0,0.6c0,0.2,0,0.5,0,0.6c0,0.2,0,0.3-0.1,0.4c0,0.1-0.1,0.2-0.1,0.3c0,0.1-0.1,0.2-0.1,0.3
				c-0.6,1.3-1.2,2.6-1.7,4c-0.4,0-0.9,0-1.3-0.1C1487,202.7,1487.5,201.6,1488,200.5z M1487.5,199c0,0.2,0,0.3,0.2,0.4
				c0.1,0.1,0.2,0.2,0.4,0.2c0.2,0,0.3,0,0.4-0.1c0.1-0.1,0.2-0.2,0.2-0.4c0-0.5,0-1,0.1-1.5c0-0.2,0-0.3-0.2-0.4
				c-0.1-0.1-0.2-0.2-0.4-0.2c-0.2,0-0.3,0-0.4,0.1c-0.1,0.1-0.2,0.2-0.2,0.4C1487.5,198,1487.5,198.5,1487.5,199z"/>
			<path fill="#FFFFFF" d="M1493,198.2c0-0.2,0-0.4,0.1-0.6c0-0.2,0.1-0.3,0.1-0.4c0-0.1,0.1-0.2,0.2-0.3c0.1-0.1,0.1-0.2,0.2-0.3
				c0.2-0.2,0.4-0.3,0.6-0.4c0.2-0.1,0.5-0.1,0.8-0.1c0.3,0,0.5,0.1,0.8,0.2c0.2,0.1,0.4,0.3,0.5,0.5c0.1,0.1,0.1,0.2,0.2,0.3
				c0,0.1,0.1,0.2,0.1,0.3c0,0.1,0,0.3,0,0.4c0,0.2,0,0.3,0,0.6c0,0.2,0,0.4-0.1,0.6c0,0.2-0.1,0.3-0.1,0.4
				c-0.1,0.1-0.1,0.2-0.2,0.3c-0.1,0.1-0.2,0.2-0.4,0.3c0.1,0.1,0.2,0.2,0.3,0.3c0.1,0.1,0.1,0.2,0.1,0.4c0,0.1,0,0.3,0,0.5
				c0,0.2,0,0.5-0.1,0.8c0,0.2,0,0.5-0.1,0.6c0,0.2-0.1,0.3-0.1,0.4c0,0.1-0.1,0.2-0.1,0.3c0,0.1-0.1,0.2-0.2,0.2
				c-0.1,0.2-0.3,0.3-0.6,0.5c-0.2,0.1-0.5,0.2-0.9,0.1c-0.3,0-0.6-0.1-0.8-0.3c-0.2-0.2-0.4-0.3-0.5-0.5c-0.1-0.1-0.1-0.2-0.1-0.3
				c0-0.1-0.1-0.2-0.1-0.3c0-0.1,0-0.3,0-0.4c0-0.2,0-0.4,0-0.6c0-0.3,0-0.6,0.1-0.8c0-0.2,0.1-0.4,0.1-0.5c0-0.1,0.1-0.3,0.2-0.4
				c0.1-0.1,0.2-0.2,0.4-0.3c-0.1-0.1-0.2-0.2-0.3-0.3c-0.1-0.1-0.1-0.2-0.2-0.4c0-0.1,0-0.3,0-0.4
				C1493,198.7,1493,198.5,1493,198.2z M1495.4,198c0-0.2,0-0.3-0.1-0.4c-0.1-0.1-0.2-0.2-0.4-0.2c-0.2,0-0.3,0-0.4,0.1
				c-0.1,0.1-0.2,0.2-0.2,0.4c0,0.4-0.1,0.8-0.1,1.2c0,0.2,0,0.3,0.1,0.4c0.1,0.1,0.2,0.2,0.4,0.2c0.2,0,0.3,0,0.4-0.1
				c0.1-0.1,0.2-0.2,0.2-0.4C1495.3,198.8,1495.4,198.4,1495.4,198z M1495.1,201.1c0-0.2,0-0.3-0.1-0.4c-0.1-0.1-0.2-0.2-0.4-0.2
				c-0.2,0-0.3,0-0.4,0.1c-0.1,0.1-0.2,0.2-0.2,0.4c0,0.5-0.1,1.1-0.1,1.6c0,0.2,0,0.3,0.1,0.4c0.1,0.1,0.2,0.2,0.4,0.2
				c0.2,0,0.3,0,0.4-0.1c0.1-0.1,0.2-0.2,0.2-0.4C1495,202.2,1495.1,201.7,1495.1,201.1z"/>
			<path fill="#FFFFFF" d="M1500.9,200.3c0.4,0,0.6,0,0.7,0c0.1-0.1,0.2-0.2,0.3-0.5c0-0.3,0.1-0.7,0.1-1c0-0.2,0-0.3-0.1-0.4
				c-0.1-0.1-0.2-0.2-0.4-0.2c-0.2,0-0.4,0-0.5,0.1c-0.1,0.1-0.2,0.2-0.2,0.4c0,0.2,0,0.4-0.1,0.7c-0.4,0-0.8-0.1-1.2-0.1
				c0-0.2,0-0.4,0.1-0.7c0-0.2,0.1-0.4,0.2-0.6c0.1-0.2,0.3-0.4,0.4-0.5c0.2-0.1,0.4-0.2,0.6-0.3c0.2-0.1,0.5-0.1,0.7-0.1
				c0.3,0,0.6,0.1,0.8,0.3c0.2,0.1,0.3,0.3,0.4,0.4c0.1,0.1,0.1,0.2,0.2,0.3c0,0.1,0.1,0.2,0.1,0.3c0,0.1,0,0.3,0,0.5
				c0,0.2,0,0.4-0.1,0.6c0,0.3-0.1,0.5-0.1,0.7c0,0.2-0.1,0.3-0.1,0.4c-0.1,0.1-0.2,0.2-0.3,0.3c-0.1,0.1-0.2,0.1-0.4,0.2
				c0.2,0.1,0.3,0.3,0.4,0.4c0.1,0.1,0.1,0.2,0.2,0.4c0,0.1,0,0.3,0,0.5c0,0.2,0,0.4-0.1,0.7c0,0.3-0.1,0.5-0.1,0.6
				c0,0.2-0.1,0.3-0.1,0.4c0,0.1-0.1,0.2-0.1,0.3c0,0.1-0.1,0.2-0.2,0.2c-0.2,0.2-0.4,0.3-0.6,0.5c-0.2,0.1-0.5,0.1-0.9,0.1
				c-0.2,0-0.4-0.1-0.6-0.2c-0.2-0.1-0.4-0.2-0.5-0.4c-0.2-0.2-0.3-0.3-0.4-0.6c-0.1-0.2-0.1-0.5-0.1-0.8c0-0.2,0-0.4,0.1-0.7
				c0.4,0,0.8,0.1,1.2,0.1c0,0.2,0,0.4-0.1,0.6c0,0.2,0,0.3,0.1,0.5c0.1,0.1,0.2,0.2,0.4,0.2c0.2,0,0.3,0,0.4-0.1
				c0.1-0.1,0.2-0.3,0.2-0.4c0-0.4,0.1-0.8,0.1-1.1c0-0.2,0-0.3,0-0.4c0-0.1-0.1-0.2-0.1-0.2c-0.1-0.1-0.2-0.1-0.3-0.1
				c-0.1,0-0.3-0.1-0.5-0.1C1500.8,201,1500.9,200.6,1500.9,200.3z"/>
		</g>
	</g>
	<g>
		<g>
			<g>
				<path fill="#FFFFFF" d="M1452.8,348.7c-0.8,2.1-1.9,3.5-3.1,4.3c-1.3,0.8-2.8,1.1-4.7,0.9c-2-0.3-3.2-0.8-3.6-1.8
					c-0.5-1-0.2-2.6,0.7-4.7c1.5-3.5,3-7,4.5-10.5c1.2,0.2,2.5,0.3,3.7,0.4c-1.5,3.7-3,7.5-4.6,11.2c-0.4,1-0.6,1.7-0.5,2.1
					c0.1,0.4,0.4,0.6,1,0.6c0.6,0.1,1-0.1,1.4-0.4c0.4-0.3,0.8-1,1.2-2c1.5-3.7,3-7.5,4.5-11.3c1.2,0.1,2.5,0.2,3.7,0.4
					C1455.5,341.6,1454.2,345.1,1452.8,348.7z"/>
				<path fill="#FFFFFF" d="M1465.5,350.5c-1.2,3.4-3.7,5-7.6,4.7c-1.8-0.1-3-0.6-3.5-1.3c-0.7-0.9-0.6-2.4,0.2-4.4
					c1.3,0.1,2.5,0.2,3.8,0.3c-0.3,0.8-0.4,1.4-0.4,1.8c0,0.6,0.4,0.9,1.1,0.9c0.6,0,1.1-0.1,1.5-0.5c0.4-0.3,0.7-0.7,0.8-1.2
					c0.3-0.8,0.2-1.5-0.4-2c-0.6-0.4-1.2-0.7-1.8-1.1c-1-0.7-1.7-1.2-1.9-1.7c-0.5-0.8-0.5-1.9,0-3.1c1.3-3.4,3.5-5,6.8-4.8
					c1.9,0.1,3.1,0.7,3.6,1.6c0.4,0.8,0.4,2-0.1,3.6c-1.2-0.1-2.4-0.1-3.6-0.2c0.6-1.5,0.3-2.3-0.7-2.3c-0.9-0.1-1.6,0.4-2,1.5
					c-0.3,0.7-0.2,1.3,0.2,1.8c0.2,0.3,0.6,0.6,1.3,1c1.1,0.6,1.7,0.9,1.8,1c0.6,0.4,1.1,0.9,1.2,1.5
					C1466,348.4,1465.9,349.4,1465.5,350.5z"/>
				<path fill="#FFFFFF" d="M1477.8,355.8c-1.4,0-2.7,0-4.1-0.1c0.1-1,0.2-2.1,0.2-3.1c-1.2,0-2.5-0.1-3.7-0.1c-0.6,1-1.1,2-1.7,3.1
					c-1.4-0.1-2.7-0.1-4-0.2c3.3-5.4,6.4-10.8,9.4-16.3c1.6,0,3.1,0.1,4.7,0.1C1478.3,344.6,1478.1,350.2,1477.8,355.8z
					 M1474.4,349.5c0.3-2.4,0.6-4.9,0.9-7.3c0,0,0,0,0,0c-1.2,2.4-2.4,4.8-3.6,7.2C1472.6,349.4,1473.5,349.5,1474.4,349.5z"/>
				<path fill="#FFFFFF" d="M1488,355.7c-1.3,0-2.6,0.1-3.9,0.1c1.5-5.6,3-11.2,4.3-16.8c1.2,0,2.5-0.1,3.7-0.1
					C1490.8,344.4,1489.4,350.1,1488,355.7z"/>
				<path fill="#FFFFFF" d="M1501.3,355c-1.5,0.1-2.9,0.2-4.4,0.3c-0.3-3.7-0.6-7.5-0.8-11.2c-0.8,3.8-1.7,7.6-2.6,11.4
					c-1.2,0.1-2.4,0.1-3.6,0.1c1.4-5.6,2.7-11.3,4-16.9c1.3-0.1,2.7-0.1,4-0.2c0.3,3.7,0.6,7.5,0.8,11.2c0,0,0,0,0.1,0
					c0.8-3.8,1.6-7.6,2.3-11.4c1.2-0.1,2.3-0.2,3.5-0.3C1503.6,343.6,1502.5,349.3,1501.3,355z"/>
				<path fill="#FFFFFF" d="M1514.7,347.1c-0.7,4.7-2.9,7.3-6.6,7.7c-2.3,0.2-3.8-0.3-4.3-1.6c-0.5-1.1-0.4-3.4,0.2-6.8
					c0.6-3.3,1.4-5.6,2.3-6.9c1-1.4,2.6-2.3,4.8-2.5c2.1-0.2,3.4,0.2,4,1.3c0.4,0.8,0.5,2.3,0.2,4.4c-1.2,0.2-2.5,0.3-3.7,0.5
					c0.2-1.1,0.2-1.9,0.2-2.3c-0.1-0.7-0.5-1.1-1.1-1c-0.7,0.1-1.3,0.6-1.7,1.7c-0.3,0.8-0.6,2.3-1,4.7c-0.4,2.5-0.6,4.1-0.5,4.9
					c0.1,0.8,0.5,1.1,1.2,1.1c0.6-0.1,1-0.4,1.4-1.1c0.3-0.7,0.7-1.8,0.9-3.4C1512.2,347.4,1513.5,347.2,1514.7,347.1z"/>
				<path fill="#FFFFFF" d="M1518.8,353.1c-1.2,0.2-2.4,0.3-3.5,0.5c0.2-1.5,0.5-2.9,0.7-4.4c1.2-0.2,2.3-0.3,3.5-0.5
					C1519.2,350.2,1519,351.7,1518.8,353.1z"/>
			</g>
		</g>
	</g>
	<g>
		<path fill="#FFFFFF" d="M1376.9,243l-26.7,59.6h-12.2l10.2-40.5l0,0l-16.5,40.5h-11.7l10.3-59.6h10.4l-8.5,41.9h0.1l16-41.9h10.7
			l-10.1,41.9h0.1l17.1-41.9H1376.9z"/>
		<path fill="#FFFFFF" d="M1387.6,302.6H1376l1.7-9.1h-7.2l-3.9,9.1h-11.1l27.9-59.6h13.5L1387.6,302.6z M1380.6,280.5l5.5-25h-0.1
			l-10.4,25H1380.6z"/>
		<path fill="#FFFFFF" d="M1424.6,254.9h-7.6l-14.6,47.7h-10.7l14.6-47.7h-6.9l3.9-11.9h25.2L1424.6,254.9z"/>
		<path fill="#FFFFFF" d="M1448.2,254.9h-7.3l-14.6,47.7h-10.7l14.6-47.7h-6.6l3.9-11.9h24.9L1448.2,254.9z"/>
		<path fill="#FFFFFF" d="M1509.2,285.4c-1.9,6-4.4,10.4-7.6,13.4c-2.6,2.5-5.3,3.8-8.2,3.8h-17.4l18.2-59.6h17c3,0,5.1,1.1,6.2,3.3
			c1.3,2.6,1.1,6.5-0.5,11.8c-1.2,3.8-2.8,6.8-4.8,9.2c-1.7,2.1-3.6,3.4-5.6,4l-0.1,0.2c1.9,0.1,3.2,1.2,3.8,3.3
			C1511.1,277.1,1510.7,280.6,1509.2,285.4z M1498.7,283.9c1.5-4.6,1-6.9-1.3-6.9h-1.8l-4.3,13.6h1.9
			C1495.4,290.6,1497.3,288.3,1498.7,283.9z M1505.3,261c1.3-4,1-6-0.9-6h-1.9l-3.6,11.5h1.8c0.8,0,1.6-0.5,2.5-1.5
			C1504.1,264,1504.8,262.6,1505.3,261z"/>
		<path fill="#FFFFFF" d="M1536.5,302.6h-11.4l1.7-9.1h-7.2l-3.9,9.1h-11.1l26.6-59.6h14.7L1536.5,302.6z M1529.8,280.5l5.5-25h-0.1
			l-10.4,25H1529.8z"/>
		<path fill="#FFFFFF" d="M1564.4,302.6h-7.6l1.5-4.8h-0.1c-1.7,2-2.7,3.2-3.2,3.6c-1.9,1.6-4.1,2.4-6.6,2.4c-4.6,0-7.9-2.7-7.8-8
			c0.1-4.3,1.8-12,5.4-23.1c3.6-11.3,6.9-19.2,10.1-23.6c3.4-4.8,8.8-7.2,14.1-7.2c5.3,0,8.3,2.1,9,6.2c0.5,3-0.2,7.7-2.2,14h-10.1
			c1.2-3.8,1.8-6.3,1.8-7.4c0-1.2-0.6-1.8-1.9-1.8c-1.3,0-2.5,1.7-3.8,5c-0.6,1.5-2.1,5.9-4.4,13.2c-2.3,7.2-3.8,12.1-4.5,14.7
			c-0.9,3.1-1.2,5-1.1,5.9c0.1,0.7,0.6,1.1,1.6,1.1c1.1,0,2.1-0.7,3-2.2c0.9-1.4,2-4.6,3.6-9.4h-3.1l3.5-11h13.2L1564.4,302.6z"/>
		<path fill="#FFFFFF" d="M1594.8,302.6h-7.6l1.5-4.8h-0.1c-1.7,2-2.7,3.2-3.2,3.6c-1.9,1.6-4.1,2.4-6.6,2.4c-4.6,0-7.5-2.7-7.5-8
			c0.1-4.3,1.8-12,5.4-23.1c3.6-11.3,6.9-19.2,10.1-23.6c3.4-4.8,8.4-7.2,13.7-7.2c5.3,0,8.3,2.1,9,6.2c0.5,3-0.2,7.7-2.2,14h-10.1
			c1.2-3.8,1.8-6.3,1.8-7.4c0-1.2-0.6-1.8-1.9-1.8c-1.3,0-2.5,1.7-3.8,5c-0.6,1.5-2.1,5.9-4.4,13.2c-2.3,7.2-3.8,12.1-4.5,14.7
			c-0.9,3.1-1.2,5-1.1,5.9c0.1,0.7,0.6,1.1,1.6,1.1c1.1,0,2.1-0.7,3-2.2c0.9-1.4,2-4.6,3.6-9.4h-3.1l3.5-11h13.2L1594.8,302.6z"/>
		<path fill="#FFFFFF" d="M1463.9,262.4l10.2-0.1c0,0,2.3-5.3,2.8-10.4c0.4-4.4-1.5-8-5.6-9.3c-5.7-1.7-11-0.6-15.1,2.3
			c-3.3,2.3-6.2,7.1-7.8,11.3c-1.7,4.4-2.3,10.8-0.1,14.7c2.6,4.6,6.1,7.6,7.5,10.9c1.7,4,0.5,7.1-1,8.9c-2.1,2.5-5.1,2.7-5.8,0.7
			c-0.7-2,0.3-4.7,0.7-6.2s1.1-3,1.1-3h-10.9c0,0-2.2,6.9-2.5,9.7c-0.3,2.8,0.1,6.5,2.8,8.9c2.7,2.5,8.8,3.2,13.7,1.4
			c5-1.9,8.5-4.9,10.9-8.9c2.4-3.9,4.3-9.9,3.6-15.1c-0.7-5.2-3.7-8.6-6.5-12.3c-2.8-3.7-4.2-6.7-3.1-9.5c1.1-2.8,3.2-3.9,5-3.9
			s2.3,1.9,2,3.2C1465.3,257.6,1463.9,262.4,1463.9,262.4z"/>
		<path fill="#FFFFFF" d="M1627.7,262.4l10.2-0.1c0,0,2.3-5.3,2.8-10.4c0.4-4.4-1.5-8-5.6-9.3c-5.7-1.7-11-0.6-15.1,2.3
			c-3.3,2.3-6.2,7.1-7.8,11.3c-1.7,4.4-2.3,10.8-0.1,14.7c2.6,4.6,6.1,7.6,7.5,10.9c1.7,4,0.5,7.1-1,8.9c-2.1,2.5-5.1,2.7-5.8,0.7
			c-0.7-2,0.3-4.7,0.7-6.2s1.1-3,1.1-3h-10.9c0,0-2.2,6.9-2.5,9.7c-0.3,2.8,0.1,6.5,2.8,8.9c2.7,2.5,8.8,3.2,13.7,1.4
			c5-1.9,8.5-4.9,10.9-8.9c2.4-3.9,4.3-9.9,3.6-15.1c-0.7-5.2-3.7-8.6-6.5-12.3c-2.8-3.7-4.2-6.7-3.1-9.5c1.1-2.8,3.2-3.9,5-3.9
			s2.3,1.9,2,3.2C1629,257.6,1627.7,262.4,1627.7,262.4z"/>
	</g>
	<g>
		
			<text transform="matrix(1 0 0 1 1399.9478 -419.7257)" fill="#FFFFFF" font-family="'DINCondensed-Bold'" font-size="10.7961" letter-spacing="2">EST 1983</text>
	</g>
	<g>
		<path fill-rule="evenodd" clip-rule="evenodd" fill="#C8161D" d="M1433.9-293c-5.7-0.7-15-0.7-20.7,0l-132.1,16.2
			c-5.7,0.7-10.3,6-10.3,11.7v44.7c0,5.7,0,15.1,0,20.8v44.7c0,5.7,4.7,11,10.3,11.7l132.1,16.2c5.7,0.7,15,0.7,20.7,0l132.1-16.2
			c5.7-0.7,10.3-6,10.3-11.7v-44.7c0-5.7,0-15.1,0-20.8v-44.7c0-5.7-4.7-11-10.3-11.7L1433.9-293z"/>
		<path fill="#FFFFFF" d="M1423.6-284.1c3.5,0,6.8,0.2,9.2,0.5l132.1,16.2c0.9,0.1,2,1.3,2,2.3v110.2c0,0.9-1.1,2.2-2,2.3
			l-132.1,16.2c-2.3,0.3-5.7,0.5-9.2,0.5c-3.5,0-6.8-0.2-9.2-0.5l-132.1-16.2c-0.9-0.1-2-1.3-2-2.3v-110.2c0-0.9,1.1-2.2,2-2.3
			l132.1-16.2C1416.7-283.9,1420.1-284.1,1423.6-284.1 M1423.6-284.9c-3.5,0-6.9,0.2-9.3,0.5l-132.1,16.2c-1.3,0.2-2.7,1.8-2.7,3.1
			v110.2c0,1.4,1.4,2.9,2.7,3.1l132.1,16.2c2.4,0.3,5.8,0.5,9.3,0.5c3.5,0,6.9-0.2,9.3-0.5l132.1-16.2c1.4-0.2,2.7-1.7,2.7-3.1
			v-110.2c0-1.4-1.4-2.9-2.7-3.1l-132.1-16.2C1430.5-284.7,1427.1-284.9,1423.6-284.9L1423.6-284.9z"/>
	</g>
	<g>
		<g>
			<path fill="#FFFFFF" d="M1462.4-190.2c-0.5,0.4-1,0.9-1.4,1.3c0.4,0.5,0.9,0.9,1.3,1.4c12.6,0,25.3,0.3,37.9,0.9
				C1487.6-188,1475-189.2,1462.4-190.2z"/>
			<path fill="#FFFFFF" d="M1384.8-187.4c0.4-0.5,0.9-0.9,1.3-1.4c-0.5-0.4-1-0.9-1.4-1.3c-12.6,1-25.3,2.2-37.8,3.6
				C1359.6-187.1,1372.2-187.4,1384.8-187.4z"/>
			<g>
				<path fill="#FFFFFF" d="M1403-187.3c-0.4,1.7-1.1,2.9-1.9,3.7c-0.9,0.8-2,1.2-3.4,1.2c-1.5,0-2.4-0.3-2.9-0.9
					c-0.5-0.7-0.5-2-0.1-3.8c0.7-2.9,1.4-5.8,2.1-8.7c1,0,2-0.1,3-0.1c-0.8,3.1-1.5,6.2-2.3,9.3c-0.2,0.8-0.2,1.4-0.1,1.7
					c0.1,0.3,0.4,0.4,0.8,0.4c0.4,0,0.8-0.2,1-0.5c0.2-0.3,0.5-0.9,0.7-1.7c0.8-3.1,1.5-6.2,2.3-9.3c1,0,2,0,3-0.1
					C1404.5-193.1,1403.8-190.2,1403-187.3z"/>
				<path fill="#FFFFFF" d="M1412.8-186.8c-0.7,2.7-2.5,4.1-5.4,4.2c-1.3,0-2.2-0.2-2.7-0.8c-0.6-0.6-0.7-1.8-0.2-3.5
					c1,0,1.9,0,2.9-0.1c-0.2,0.7-0.2,1.2-0.2,1.5c0.1,0.4,0.4,0.7,0.9,0.7c0.4,0,0.8-0.2,1.1-0.5c0.3-0.3,0.5-0.6,0.5-1
					c0.2-0.7,0-1.2-0.4-1.5c-0.5-0.2-1-0.5-1.5-0.7c-0.8-0.5-1.4-0.8-1.6-1.2c-0.4-0.6-0.5-1.4-0.3-2.5c0.7-2.8,2.4-4.2,5-4.3
					c1.6,0,2.5,0.3,3,1.1c0.4,0.6,0.4,1.5,0.1,2.8c-0.9,0-1.9,0-2.8,0c0.3-1.2,0.1-1.8-0.7-1.8c-0.8,0-1.2,0.5-1.5,1.3
					c-0.1,0.6-0.1,1,0.3,1.4c0.2,0.2,0.5,0.4,1.1,0.7c0.9,0.4,1.4,0.6,1.4,0.7c0.5,0.3,0.9,0.7,1,1.1
					C1413-188.5,1413-187.7,1412.8-186.8z"/>
				<path fill="#FFFFFF" d="M1422.1-183c-1,0-2,0-3,0c0-0.8,0.1-1.6,0.1-2.5c-0.9,0-1.9,0-2.8,0c-0.4,0.8-0.8,1.7-1.2,2.5
					c-1,0-2,0-3,0c2.2-4.4,4.4-8.8,6.6-13.3c1.3,0,2.5,0,3.8,0C1422.5-191.8,1422.3-187.4,1422.1-183z M1419.5-187.9
					c0.2-1.9,0.4-3.9,0.5-5.8c0,0,0,0,0,0c-0.9,1.9-1.7,3.9-2.6,5.8C1418.1-187.9,1418.8-187.9,1419.5-187.9z"/>
				<path fill="#FFFFFF" d="M1429.7-183c-1,0-1.9,0-2.9,0c1.2-4.4,2.4-8.8,3.7-13.2c1,0,2,0,3,0
					C1432.1-191.8,1430.9-187.4,1429.7-183z"/>
				<path fill="#FFFFFF" d="M1439.6-182.9c-1.1,0-2.2,0-3.3,0c0-3,0-5.9,0-8.9c-0.8,3-1.7,5.9-2.5,8.9c-0.9,0-1.8,0-2.7,0
					c1.2-4.4,2.5-8.8,3.7-13.2c1.1,0,2.2,0,3.2,0c0,3,0,5.9-0.1,8.9c0,0,0,0,0.1,0c0.8-2.9,1.7-5.9,2.6-8.8c0.9,0,1.9,0,2.8,0.1
					C1442.1-191.6,1440.9-187.2,1439.6-182.9z"/>
				<path fill="#FFFFFF" d="M1450.3-187.8c-1.1,3.6-3,5.4-5.7,5.3c-1.7,0-2.8-0.6-3.1-1.6c-0.3-0.9-0.1-2.7,0.7-5.3
					c0.7-2.6,1.5-4.3,2.4-5.2c0.9-1,2.3-1.5,4-1.5c1.7,0,2.6,0.5,3,1.4c0.2,0.7,0.1,1.9-0.4,3.5c-1,0-1.9-0.1-2.9-0.1
					c0.3-0.9,0.4-1.5,0.4-1.8c0-0.6-0.2-0.9-0.8-0.9c-0.6,0-1.1,0.4-1.5,1.1c-0.3,0.6-0.7,1.8-1.3,3.6c-0.6,1.9-0.8,3.2-0.8,3.8
					c0,0.6,0.3,0.9,0.8,0.9c0.4,0,0.8-0.2,1.1-0.7c0.3-0.5,0.7-1.3,1-2.6C1448.4-187.8,1449.4-187.8,1450.3-187.8z"/>
				<path fill="#FFFFFF" d="M1452.6-182.6c-0.9,0-1.8-0.1-2.6-0.1c0.3-1.1,0.7-2.2,1-3.3c0.9,0,1.8,0.1,2.6,0.1
					C1453.3-184.8,1453-183.7,1452.6-182.6z"/>
			</g>
		</g>
	</g>
	<g>
		<g>
			<path fill="#FFFFFF" d="M1339.2-249.9c-6.5,16-12.7,32.1-18.8,48.2c-3.2,0.2-6.4,0.4-9.6,0.6c2-10.8,4-21.7,6-32.5c0,0,0,0,0,0
				c-3.7,10.9-7.4,21.9-11,32.9c-3.1,0.2-6.2,0.5-9.3,0.7c1.5-15.9,3.1-31.7,4.7-47.6c2.8-0.2,5.6-0.4,8.5-0.6
				c-1.5,11.2-3,22.3-4.5,33.5c0,0,0,0,0,0c3.4-11.3,7-22.6,10.6-33.9c2.9-0.2,5.8-0.4,8.7-0.5c-2.1,11.2-4.1,22.4-6,33.6
				c0,0,0.1,0,0.1,0c3.8-11.3,7.8-22.6,11.8-33.9C1333.4-249.6,1336.3-249.7,1339.2-249.9z"/>
			<path fill="#FFFFFF" d="M1350.2-203.3c-3.1,0.1-6.2,0.3-9.2,0.4c0.3-2.4,0.6-4.8,1-7.2c-1.9,0.1-3.8,0.2-5.7,0.3
				c-0.9,2.4-1.8,4.9-2.7,7.3c-2.9,0.2-5.8,0.3-8.7,0.5c6.4-16.1,13-32.2,19.8-48.2c3.7-0.2,7.3-0.3,11-0.5
				C1353.7-234.8,1351.9-219.1,1350.2-203.3z M1343.7-220.4c1.2-6.6,2.3-13.3,3.5-19.9c0,0,0,0,0,0c-2.5,6.7-4.9,13.4-7.4,20.1
				C1341.1-220.3,1342.4-220.4,1343.7-220.4z"/>
			<path fill="#FFFFFF" d="M1378.4-242c-2,0.1-4.1,0.1-6.1,0.2c-3.6,12.7-7,25.4-10.4,38.1c-2.8,0.1-5.7,0.2-8.5,0.3
				c3.3-12.7,6.7-25.4,10.2-38.2c-1.9,0.1-3.7,0.1-5.6,0.2c0.9-3.2,1.8-6.3,2.8-9.5c6.8-0.3,13.7-0.5,20.5-0.6
				C1380.3-248.3,1379.4-245.2,1378.4-242z"/>
			<path fill="#FFFFFF" d="M1397.5-242.5c-2,0-3.9,0.1-5.9,0.1c-3.7,12.6-7.3,25.3-10.9,38c-2.8,0.1-5.7,0.2-8.5,0.2
				c3.5-12.7,7-25.4,10.7-38c-1.8,0-3.6,0.1-5.4,0.1c1-3.2,1.9-6.3,2.9-9.5c6.8-0.2,13.5-0.3,20.3-0.4
				C1399.7-248.7,1398.6-245.6,1397.5-242.5z"/>
			<path fill="#FFFFFF" d="M1446.6-218.4c-1.6,4.7-3.6,8.2-6.2,10.5c-2.1,2-4.3,2.9-6.5,2.9c-4.6,0-9.2,0-13.8,0
				c4.8-15.7,9.7-31.4,14.7-47.1c4.6,0,9.3,0.1,13.9,0.2c2.4,0,4.1,0.9,5,2.7c1,2,0.8,5.1-0.6,9.3c-1,3-2.3,5.4-4,7.2
				c-1.4,1.6-2.9,2.6-4.6,3.1c0,0,0,0.1,0,0.1c1.6,0.1,2.6,1,3,2.6C1448.2-224.9,1447.9-222.1,1446.6-218.4z M1438.2-219.6
				c1.2-3.6,0.9-5.5-1-5.5c-0.5,0-1,0-1.5,0c-1.2,3.6-2.3,7.2-3.5,10.7c0.5,0,1,0,1.5,0C1435.5-214.4,1437-216.1,1438.2-219.6z
				 M1443.7-237.7c1.1-3.2,0.8-4.8-0.7-4.8c-0.5,0-1,0-1.5,0c-1,3-2,6-3,9c0.5,0,1,0,1.5,0c0.6,0,1.3-0.4,2-1.2
				C1442.7-235.3,1443.3-236.4,1443.7-237.7z"/>
			<path fill="#FFFFFF" d="M1468-204.3c-3-0.1-6-0.2-9-0.2c0.5-2.4,1-4.8,1.5-7.2c-1.9,0-3.8-0.1-5.7-0.1c-1.1,2.4-2.2,4.7-3.3,7.1
				c-2.9-0.1-5.8-0.1-8.8-0.1c7.2-15.6,14.6-31.2,22.3-46.7c4,0.1,8,0.2,12,0.3C1473.9-235.6,1470.9-219.9,1468-204.3z
				 M1463.1-221.9c1.6-6.5,3.3-13.1,5-19.6c0,0,0,0,0,0c-3,6.5-5.9,13-8.8,19.5C1460.5-222,1461.8-221.9,1463.1-221.9z"/>
			<path fill="#FFFFFF" d="M1490.1-203.6c-2-0.1-4-0.2-6-0.2c0.5-1.3,0.9-2.5,1.4-3.8c0,0-0.1,0-0.1,0c-1.4,1.5-2.3,2.4-2.7,2.7
				c-1.6,1.2-3.3,1.8-5.3,1.7c-3.7-0.1-6.1-2.3-6-6.5c0.1-3.4,1.7-9.4,4.8-18.1c3.2-8.9,6.1-15,8.8-18.4c2.9-3.7,7.3-5.4,11.7-5.2
				c4.3,0.2,6.7,1.9,7.1,5.2c0.3,2.4-0.5,6.1-2.3,11c-2.7-0.1-5.5-0.3-8.2-0.4c1.1-3,1.7-4.9,1.7-5.8c0-0.9-0.5-1.4-1.4-1.5
				c-1,0-2.1,1.2-3.3,3.8c-0.5,1.2-1.9,4.6-3.9,10.3c-2.1,5.6-3.4,9.5-4,11.5c-0.8,2.4-1.1,3.9-1,4.6c0.1,0.6,0.5,0.9,1.2,0.9
				c0.9,0,1.7-0.5,2.4-1.6c0.7-1.1,1.8-3.6,3.1-7.3c-0.8,0-1.6-0.1-2.5-0.1c1-2.9,2.1-5.7,3.1-8.6c3.5,0.1,7.1,0.3,10.6,0.5
				C1496.2-220.4,1493.1-212,1490.1-203.6z"/>
			<path fill="#FFFFFF" d="M1514.1-202.4c-2-0.1-4-0.2-6-0.3c0.5-1.3,0.9-2.5,1.4-3.8c0,0-0.1,0-0.1,0c-1.4,1.5-2.3,2.4-2.7,2.7
				c-1.6,1.2-3.3,1.7-5.3,1.6c-3.7-0.2-5.9-2.4-5.6-6.6c0.2-3.4,1.9-9.4,5.1-18c3.3-8.8,6.3-14.9,9.1-18.2c3-3.6,7.2-5.3,11.5-5
				c4.3,0.3,6.7,2,7,5.3c0.3,2.4-0.6,6-2.5,11c-2.7-0.2-5.5-0.3-8.2-0.5c1.1-2.9,1.7-4.9,1.8-5.8c0-0.9-0.4-1.4-1.4-1.5
				c-1-0.1-2.1,1.2-3.3,3.8c-0.6,1.2-1.9,4.6-4.1,10.2c-2.1,5.6-3.5,9.4-4.2,11.4c-0.8,2.4-1.2,3.9-1.1,4.6c0,0.6,0.5,0.9,1.2,0.9
				c0.9,0,1.7-0.5,2.5-1.6c0.7-1.1,1.8-3.5,3.2-7.3c-0.8,0-1.6-0.1-2.5-0.1c1.1-2.8,2.2-5.7,3.3-8.5c3.5,0.2,7.1,0.4,10.6,0.6
				C1520.5-219.2,1517.3-210.8,1514.1-202.4z"/>
			<path fill="#FFFFFF" d="M1410.3-236.6c2.8,0,5.5-0.1,8.3-0.1c0,0,1.9-4.2,2.3-8.2c0.3-3.5-1.2-6.3-4.6-7.3
				c-4.6-1.4-8.9-0.4-12.3,1.9c-2.7,1.9-5,5.7-6.2,9c-1.3,3.5-1.7,8.6,0.1,11.6c2.2,3.6,5,6,6.1,8.5c1.4,3.2,0.5,5.6-0.7,7
				c-1.7,2-4.1,2.2-4.6,0.6c-0.5-1.5,0.2-3.7,0.5-4.9c0.3-1.2,0.8-2.4,0.8-2.4c-2.9,0-5.8,0.1-8.7,0.1c0,0-1.7,5.5-1.8,7.7
				c-0.2,2.2,0.2,5.1,2.3,7c2.2,1.9,7,2.4,10.8,0.9c3.9-1.5,6.7-4,8.6-7.1c1.9-3.1,3.4-7.8,2.8-12c-0.5-4.1-3-6.8-5.3-9.7
				c-2.3-2.9-3.5-5.2-2.6-7.5c0.9-2.2,2.6-3.1,4-3.1c1.4,0,1.8,1.5,1.6,2.5C1411.3-240.4,1410.3-236.6,1410.3-236.6z"/>
			<path fill="#FFFFFF" d="M1542.4-232.4c2.8,0.2,5.5,0.4,8.3,0.6c0,0,2.2-4,2.9-8c0.6-3.5-0.7-6.4-4-7.7c-4.5-1.7-8.9-1.1-12.4,0.9
				c-2.8,1.7-5.4,5.3-6.9,8.5c-1.6,3.4-2.4,8.4-0.8,11.6c1.9,3.7,4.5,6.3,5.4,9c1.1,3.3,0,5.6-1.3,6.9c-1.8,1.8-4.2,1.8-4.6,0.3
				c-0.4-1.6,0.5-3.7,0.9-4.9c0.4-1.2,1-2.3,1-2.3c-2.9-0.2-5.8-0.4-8.7-0.5c0,0-2.1,5.4-2.5,7.6c-0.3,2.2-0.2,5.1,1.8,7.2
				c2,2.1,6.8,2.9,10.7,1.8c4-1.2,7-3.4,9.1-6.4c2.1-3,4-7.5,3.8-11.7c-0.2-4.2-2.5-7-4.5-10.1c-2-3-3-5.5-2-7.7
				c1-2.2,2.8-2.9,4.2-2.8c1.4,0.1,1.7,1.6,1.4,2.6C1543.8-236.1,1542.4-232.4,1542.4-232.4z"/>
		</g>
	</g>
	<g>
		<g>
			<path fill="#FFFFFF" d="M1401-172.5c1.1-0.1,2.1-0.2,3.2-0.2c0,0.3,0,0.7,0.1,1c-0.7,0-1.4,0.1-2.1,0.2c0.1,0.7,0.1,1.4,0.2,2.1
				c0.6,0,1.2-0.1,1.8-0.1c0,0.3,0,0.7,0.1,1c-0.6,0-1.2,0.1-1.8,0.1c0.1,0.7,0.1,1.4,0.2,2.1c0.7-0.1,1.4-0.1,2.1-0.1
				c0,0.3,0,0.7,0.1,1c-1,0.1-2.1,0.1-3.1,0.2C1401.4-167.7,1401.2-170.1,1401-172.5z"/>
			<path fill="#FFFFFF" d="M1410.6-171c-0.4,0-0.7,0-1.1,0c0-0.1,0-0.2,0-0.2c0-0.2-0.1-0.4-0.2-0.6c-0.1-0.2-0.3-0.2-0.6-0.2
				c-0.1,0-0.3,0-0.4,0.1c-0.1,0.1-0.2,0.1-0.2,0.2c0,0.1-0.1,0.2-0.1,0.3c0,0.1,0,0.2,0,0.4c0,0.1,0,0.3,0,0.4c0,0.1,0,0.2,0.1,0.3
				c0,0.1,0.1,0.1,0.2,0.2c0.1,0.1,0.2,0.1,0.3,0.1c0.3,0.1,0.6,0.2,0.8,0.3c0.2,0.1,0.4,0.2,0.6,0.3c0.2,0.1,0.3,0.2,0.4,0.4
				c0.1,0.2,0.1,0.3,0.2,0.5c0,0.2,0.1,0.4,0.1,0.7c0,0.3,0,0.6-0.1,0.9c-0.1,0.3-0.1,0.5-0.3,0.7c-0.1,0.2-0.3,0.4-0.5,0.5
				c-0.2,0.1-0.5,0.2-0.8,0.2c-0.3,0-0.5,0-0.7-0.1c-0.2-0.1-0.4-0.2-0.6-0.3c-0.2-0.1-0.3-0.3-0.4-0.5c-0.1-0.2-0.2-0.4-0.2-0.7
				c0-0.1,0-0.3,0-0.4c0.4,0,0.7,0,1.1-0.1c0,0.1,0,0.2,0,0.3c0,0.2,0.1,0.4,0.2,0.5c0.1,0.1,0.3,0.2,0.6,0.2c0.2,0,0.3,0,0.4-0.1
				c0.1-0.1,0.2-0.1,0.2-0.2c0-0.1,0.1-0.2,0.1-0.3c0-0.1,0-0.3,0-0.5c0-0.2,0-0.3,0-0.5c0-0.1-0.1-0.2-0.1-0.3
				c0-0.1-0.1-0.1-0.2-0.2c-0.1,0-0.2-0.1-0.3-0.1c-0.3-0.1-0.5-0.2-0.8-0.3c-0.5-0.2-0.8-0.4-1-0.7c-0.2-0.3-0.3-0.7-0.3-1.1
				c0-0.3,0-0.5,0.1-0.8c0.1-0.3,0.2-0.5,0.3-0.7c0.1-0.2,0.3-0.3,0.6-0.5c0.2-0.1,0.5-0.2,0.8-0.2c0.3,0,0.5,0,0.7,0.1
				c0.2,0.1,0.4,0.2,0.6,0.4c0.2,0.2,0.3,0.3,0.4,0.5c0.1,0.2,0.1,0.4,0.2,0.6C1410.6-171.4,1410.6-171.2,1410.6-171z"/>
			<path fill="#FFFFFF" d="M1414.1-172.3c-0.4,0-0.8,0-1.2,0c0-0.3,0-0.7,0-1c1.2,0,2.4-0.1,3.6-0.1c0,0.3,0,0.7,0,1
				c-0.4,0-0.8,0-1.2,0c0.1,2.1,0.1,4.2,0.2,6.3c-0.3,0-0.7,0-1,0C1414.3-168,1414.2-170.2,1414.1-172.3z"/>
			<path fill="#FFFFFF" d="M1424.2-172.3c-0.4,0.3-0.7,0.5-1.1,0.8c0-0.4,0-0.7,0-1.1c0.4-0.3,0.7-0.5,1.1-0.8c0.4,0,0.7,0,1.1,0
				c0,2.4,0,4.9-0.1,7.3c-0.4,0-0.7,0-1,0C1424.2-168.1,1424.2-170.2,1424.2-172.3z"/>
			<path fill="#FFFFFF" d="M1430.4-169C1430.4-169,1430.4-169,1430.4-169c-0.1,0-0.1,0-0.2,0c-0.1,0-0.2,0-0.3,0
				c-0.2,0-0.4-0.1-0.5-0.1c-0.2-0.1-0.3-0.2-0.4-0.3c0-0.1-0.1-0.1-0.1-0.2c0-0.1,0-0.2-0.1-0.3c0-0.1,0-0.3,0-0.5
				c0-0.2,0-0.4,0-0.7c0-0.2,0-0.4,0-0.6c0-0.2,0-0.3,0-0.4c0-0.1,0-0.2,0.1-0.3c0-0.1,0.1-0.2,0.1-0.2c0.1-0.2,0.3-0.4,0.6-0.5
				c0.2-0.1,0.5-0.2,0.8-0.2c0.3,0,0.6,0.1,0.8,0.2c0.2,0.1,0.4,0.3,0.5,0.5c0,0.1,0.1,0.2,0.1,0.2c0,0.1,0.1,0.2,0.1,0.3
				c0,0.1,0,0.2,0,0.4c0,0.2,0,0.4,0,0.6c0,0.2,0,0.4,0,0.6c0,0.1,0,0.3,0,0.4c0,0.1,0,0.2-0.1,0.3c0,0.1-0.1,0.2-0.1,0.3
				c-0.5,1.2-1,2.4-1.5,3.6c-0.4,0-0.8,0-1.2,0C1429.6-167,1430-168,1430.4-169z M1430-170.4c0,0.2,0,0.3,0.1,0.4
				c0.1,0.1,0.2,0.2,0.4,0.2c0.1,0,0.3,0,0.4-0.1c0.1-0.1,0.2-0.2,0.2-0.4c0-0.5,0-0.9,0-1.4c0-0.2,0-0.3-0.1-0.4
				c-0.1-0.1-0.2-0.2-0.4-0.2c-0.1,0-0.3,0-0.4,0.1c-0.1,0.1-0.2,0.2-0.2,0.4C1430-171.3,1430-170.9,1430-170.4z"/>
			<path fill="#FFFFFF" d="M1434.9-171.2c0-0.2,0-0.4,0-0.5c0-0.1,0-0.3,0.1-0.4c0-0.1,0.1-0.2,0.1-0.3c0.1-0.1,0.1-0.2,0.2-0.2
				c0.1-0.2,0.3-0.3,0.5-0.4c0.2-0.1,0.4-0.1,0.7-0.1c0.2,0,0.5,0.1,0.7,0.2c0.2,0.1,0.4,0.3,0.5,0.4c0.1,0.1,0.1,0.2,0.2,0.3
				c0,0.1,0.1,0.2,0.1,0.3c0,0.1,0,0.2,0,0.4c0,0.1,0,0.3,0,0.5c0,0.2,0,0.4,0,0.6c0,0.2,0,0.3-0.1,0.4c0,0.1-0.1,0.2-0.2,0.3
				c-0.1,0.1-0.2,0.2-0.3,0.3c0.1,0.1,0.2,0.2,0.3,0.3c0.1,0.1,0.1,0.2,0.1,0.3c0,0.1,0,0.3,0,0.5c0,0.2,0,0.4,0,0.7
				c0,0.2,0,0.4,0,0.6c0,0.1,0,0.3-0.1,0.4c0,0.1-0.1,0.2-0.1,0.3c0,0.1-0.1,0.1-0.2,0.2c-0.1,0.2-0.3,0.3-0.5,0.4
				c-0.2,0.1-0.5,0.2-0.8,0.1c-0.3,0-0.6-0.1-0.8-0.2c-0.2-0.1-0.4-0.3-0.5-0.5c-0.1-0.1-0.1-0.2-0.1-0.2c0-0.1-0.1-0.2-0.1-0.3
				c0-0.1,0-0.2,0-0.4c0-0.1,0-0.3,0-0.6c0-0.3,0-0.5,0-0.7c0-0.2,0-0.3,0.1-0.5c0-0.1,0.1-0.2,0.2-0.3c0.1-0.1,0.2-0.2,0.3-0.3
				c-0.1-0.1-0.2-0.2-0.3-0.3c-0.1-0.1-0.1-0.2-0.1-0.3c0-0.1,0-0.3,0-0.4C1434.9-170.8,1434.9-171,1434.9-171.2z M1437-171.5
				c0-0.1,0-0.3-0.1-0.4c-0.1-0.1-0.2-0.2-0.4-0.2c-0.1,0-0.3,0-0.4,0.1c-0.1,0.1-0.2,0.2-0.2,0.4c0,0.4,0,0.7-0.1,1.1
				c0,0.1,0,0.3,0.1,0.4c0.1,0.1,0.2,0.2,0.4,0.2c0.1,0,0.3,0,0.4-0.1c0.1-0.1,0.2-0.2,0.2-0.4C1437-170.8,1437-171.1,1437-171.5z
				 M1436.9-168.6c0-0.1,0-0.3-0.1-0.4c-0.1-0.1-0.2-0.2-0.4-0.2c-0.1,0-0.3,0-0.4,0.1c-0.1,0.1-0.2,0.2-0.2,0.4c0,0.5,0,1-0.1,1.4
				c0,0.1,0,0.3,0.1,0.4c0.1,0.1,0.2,0.2,0.4,0.2c0.1,0,0.3,0,0.4-0.1c0.1-0.1,0.2-0.2,0.2-0.4
				C1436.8-167.7,1436.9-168.2,1436.9-168.6z"/>
			<path fill="#FFFFFF" d="M1442.1-169.6c0.3,0,0.5,0,0.7-0.1c0.1-0.1,0.2-0.2,0.2-0.5c0-0.3,0-0.6,0.1-0.9c0-0.1,0-0.3-0.1-0.4
				c-0.1-0.1-0.2-0.2-0.4-0.2c-0.2,0-0.3,0-0.4,0.1c-0.1,0.1-0.1,0.2-0.1,0.3c0,0.2,0,0.4,0,0.6c-0.4,0-0.7,0-1.1-0.1
				c0-0.2,0-0.4,0-0.6c0-0.2,0.1-0.4,0.2-0.6c0.1-0.2,0.2-0.3,0.4-0.5c0.2-0.1,0.3-0.2,0.5-0.3c0.2-0.1,0.4-0.1,0.6-0.1
				c0.3,0,0.5,0.1,0.7,0.2c0.2,0.1,0.3,0.3,0.4,0.4c0.1,0.1,0.1,0.2,0.2,0.3c0,0.1,0.1,0.2,0.1,0.3c0,0.1,0,0.3,0,0.4
				c0,0.2,0,0.4,0,0.6c0,0.3,0,0.5-0.1,0.6c0,0.2-0.1,0.3-0.1,0.4c-0.1,0.1-0.1,0.2-0.2,0.3c-0.1,0.1-0.2,0.1-0.4,0.2
				c0.2,0.1,0.3,0.2,0.4,0.3c0.1,0.1,0.1,0.2,0.2,0.3c0,0.1,0,0.3,0,0.4c0,0.2,0,0.4,0,0.6c0,0.2,0,0.4-0.1,0.6c0,0.2,0,0.3-0.1,0.4
				c0,0.1-0.1,0.2-0.1,0.3c0,0.1-0.1,0.1-0.2,0.2c-0.1,0.2-0.3,0.3-0.5,0.4c-0.2,0.1-0.5,0.2-0.8,0.1c-0.2,0-0.3-0.1-0.5-0.1
				c-0.2-0.1-0.3-0.2-0.5-0.3c-0.1-0.1-0.3-0.3-0.3-0.5c-0.1-0.2-0.1-0.5-0.1-0.7c0-0.2,0-0.4,0-0.6c0.4,0,0.7,0,1.1,0.1
				c0,0.2,0,0.4,0,0.5c0,0.2,0,0.3,0.1,0.4c0.1,0.1,0.2,0.2,0.4,0.2c0.2,0,0.3,0,0.4-0.1c0.1-0.1,0.2-0.2,0.2-0.4
				c0-0.3,0.1-0.7,0.1-1c0-0.1,0-0.3,0-0.4c0-0.1-0.1-0.2-0.1-0.2c-0.1-0.1-0.1-0.1-0.2-0.1c-0.1,0-0.2,0-0.4-0.1
				C1442-169,1442-169.3,1442.1-169.6z"/>
		</g>
	</g>
	<g>
		<path fill="#C8161D" d="M75.7,25.4L48.2,86.7H35.6L46.2,45l0,0l-17,41.7H17.1l10.6-61.3h10.7l-8.7,43.1h0.1l16.5-43.1h11
			L46.9,68.5H47l17.6-43.1H75.7z"/>
		<path fill="#C8161D" d="M86.8,86.7h-12l1.7-9.4h-7.4L65,86.7H53.6l28.7-61.3h13.9L86.8,86.7z M79.5,64l5.7-25.7h-0.1L74.5,64H79.5
			z"/>
		<path fill="#C8161D" d="M124.9,37.6h-7.8L102,86.7H91L106,37.6h-7.1l4-12.2h26L124.9,37.6z"/>
		<path fill="#C8161D" d="M149.1,37.6h-7.5l-15.1,49.1h-11l15.1-49.1h-6.8l4-12.2h25.6L149.1,37.6z"/>
		<path fill="#C8161D" d="M211.9,69.1c-1.9,6.1-4.5,10.7-7.8,13.8c-2.7,2.6-5.5,3.9-8.4,3.9h-17.9l18.7-61.3h17.5
			c3.1,0,5.2,1.1,6.4,3.3c1.3,2.6,1.2,6.7-0.6,12.1c-1.2,3.9-2.9,7-4.9,9.4c-1.8,2.1-3.7,3.5-5.8,4.1l-0.1,0.2
			c2,0.1,3.3,1.2,3.9,3.3C213.9,60.5,213.5,64.2,211.9,69.1z M201.1,67.5c1.5-4.8,1.1-7.1-1.4-7.1h-1.9l-4.4,14h1.9
			C197.7,74.4,199.6,72.1,201.1,67.5z M207.9,44c1.3-4.1,1-6.2-1-6.2H205l-3.7,11.8h1.9c0.8,0,1.7-0.5,2.6-1.6
			C206.6,47,207.3,45.7,207.9,44z"/>
		<path fill="#C8161D" d="M240,86.7h-11.7l1.7-9.4h-7.4l-4.1,9.4h-11.4l27.4-61.3h15.2L240,86.7z M233.1,64l5.7-25.7h-0.1L228,64
			H233.1z"/>
		<path fill="#C8161D" d="M268.7,86.7h-7.8l1.6-5h-0.1c-1.7,2.1-2.8,3.3-3.3,3.7c-2,1.7-4.2,2.5-6.8,2.5c-4.8,0-8.1-2.7-8-8.2
			c0.1-4.4,1.9-12.3,5.5-23.8c3.7-11.7,7.1-19.8,10.4-24.3c3.5-4.9,9-7.4,14.5-7.4c5.5,0,8.5,2.1,9.3,6.4c0.5,3.1-0.2,7.9-2.3,14.4
			h-10.4c1.2-3.9,1.8-6.5,1.8-7.7c0-1.2-0.7-1.8-1.9-1.8c-1.3,0-2.6,1.7-3.9,5.1c-0.6,1.5-2.1,6.1-4.5,13.6
			c-2.3,7.4-3.9,12.5-4.6,15.1c-0.9,3.1-1.2,5.2-1.1,6.1c0.1,0.7,0.6,1.1,1.6,1.1c1.2,0,2.2-0.7,3.1-2.2c0.9-1.5,2.1-4.7,3.7-9.7
			h-3.2l3.6-11.3h13.6L268.7,86.7z"/>
		<path fill="#C8161D" d="M300,86.7h-7.8l1.6-5h-0.1c-1.7,2.1-2.8,3.3-3.3,3.7c-2,1.7-4.2,2.5-6.8,2.5c-4.8,0-7.8-2.7-7.7-8.2
			c0.1-4.4,1.9-12.3,5.5-23.8c3.7-11.7,7.1-19.8,10.4-24.3c3.5-4.9,8.7-7.4,14.1-7.4c5.5,0,8.5,2.1,9.3,6.4
			c0.5,3.1-0.2,7.9-2.3,14.4h-10.4c1.2-3.9,1.8-6.5,1.8-7.7c0-1.2-0.7-1.8-1.9-1.8c-1.3,0-2.6,1.7-3.9,5.1
			c-0.6,1.5-2.1,6.1-4.5,13.6c-2.3,7.4-3.9,12.5-4.6,15.1c-0.9,3.1-1.2,5.2-1.1,6.1c0.1,0.7,0.6,1.1,1.6,1.1c1.2,0,2.2-0.7,3.1-2.2
			c0.9-1.5,2.1-4.7,3.7-9.7h-3.2l3.6-11.3h13.6L300,86.7z"/>
		<path fill="#C8161D" d="M165.3,45.5l10.5-0.1c0,0,2.4-5.5,2.9-10.7c0.4-4.6-1.5-8.3-5.8-9.6c-5.8-1.8-11.3-0.6-15.5,2.4
			c-3.4,2.4-6.4,7.3-8.1,11.7c-1.8,4.5-2.3,11.2-0.1,15.1c2.7,4.7,6.3,7.8,7.7,11.2c1.7,4.1,0.5,7.3-1,9.1c-2.2,2.5-5.3,2.7-6,0.7
			c-0.7-2,0.3-4.8,0.7-6.4c0.4-1.6,1.1-3.1,1.1-3.1h-11.2c0,0-2.3,7.1-2.6,10c-0.3,2.9,0.1,6.7,2.9,9.2c2.7,2.5,9,3.3,14.1,1.4
			c5.1-1.9,8.7-5.1,11.2-9.1s4.4-10.2,3.7-15.5c-0.7-5.4-3.8-8.8-6.7-12.6c-2.9-3.8-4.4-6.9-3.2-9.8s3.3-4,5.1-4s2.3,1.9,2,3.3
			C166.7,40.5,165.3,45.5,165.3,45.5z"/>
		<path fill="#C8161D" d="M333.9,45.5l10.5-0.1c0,0,2.4-5.5,2.9-10.7c0.4-4.6-1.5-8.3-5.8-9.6c-5.8-1.8-11.3-0.6-15.5,2.4
			c-3.4,2.4-6.4,7.3-8.1,11.7c-1.8,4.5-2.3,11.2-0.1,15.1c2.7,4.7,6.3,7.8,7.7,11.2c1.7,4.1,0.5,7.3-1,9.1c-2.2,2.5-5.3,2.7-6,0.7
			c-0.7-2,0.3-4.8,0.7-6.4c0.4-1.6,1.1-3.1,1.1-3.1h-11.2c0,0-2.3,7.1-2.6,10c-0.3,2.9,0.1,6.7,2.9,9.2c2.7,2.5,9,3.3,14.1,1.4
			c5.1-1.9,8.7-5.1,11.2-9.1s4.4-10.2,3.7-15.5c-0.7-5.4-3.8-8.8-6.7-12.6c-2.9-3.8-4.4-6.9-3.2-9.8c1.1-2.9,3.3-4,5.1-4
			s2.3,1.9,2,3.3C335.3,40.5,333.9,45.5,333.9,45.5z"/>
	</g>
</g>
</svg>
